<svg width="18" height="16" viewBox="0 0 18 16" fill="none" xmlns="http://www.w3.org/2000/svg">
<rect width="18" height="16" fill="#E5E5E5"/>
<g clip-path="url(#clip0)">
<rect width="1440" height="660" transform="translate(-29 -140)" fill="white"/>
<g filter="url(#filter0_d)">
<rect x="-29" y="-140" width="76" height="660" fill="white"/>
</g>
<path fill-rule="evenodd" clip-rule="evenodd" d="M0 1.14286C0 0.839753 0.118526 0.549062 0.329505 0.334735C0.540483 0.120408 0.826631 0 1.125 0H16.875C17.1734 0 17.4595 0.120408 17.6705 0.334735C17.8815 0.549062 18 0.839753 18 1.14286V3.42857C18 3.73168 17.8815 4.02237 17.6705 4.23669C17.4595 4.45102 17.1734 4.57143 16.875 4.57143V13.1429C16.875 13.9006 16.5787 14.6273 16.0512 15.1632C15.5238 15.699 14.8084 16 14.0625 16H3.9375C3.19158 16 2.47621 15.699 1.94876 15.1632C1.42132 14.6273 1.125 13.9006 1.125 13.1429V4.57143C0.826631 4.57143 0.540483 4.45102 0.329505 4.23669C0.118526 4.02237 0 3.73168 0 3.42857V1.14286ZM2.25 4.57143V13.1429C2.25 13.5975 2.42779 14.0336 2.74426 14.355C3.06072 14.6765 3.48995 14.8571 3.9375 14.8571H14.0625C14.5101 14.8571 14.9393 14.6765 15.2557 14.355C15.5722 14.0336 15.75 13.5975 15.75 13.1429V4.57143H2.25ZM16.875 1.14286H1.125V3.42857H16.875V1.14286ZM5.625 7.42857C5.625 7.27702 5.68426 7.13167 5.78975 7.02451C5.89524 6.91735 6.03832 6.85714 6.1875 6.85714H11.8125C11.9617 6.85714 12.1048 6.91735 12.2102 7.02451C12.3157 7.13167 12.375 7.27702 12.375 7.42857C12.375 7.58012 12.3157 7.72547 12.2102 7.83263C12.1048 7.9398 11.9617 8 11.8125 8H6.1875C6.03832 8 5.89524 7.9398 5.78975 7.83263C5.68426 7.72547 5.625 7.58012 5.625 7.42857Z" fill="#4D4D4D"/>
</g>
<defs>
<filter id="filter0_d" x="-34" y="-145" width="86" height="670" filterUnits="userSpaceOnUse" color-interpolation-filters="sRGB">
<feFlood flood-opacity="0" result="BackgroundImageFix"/>
<feColorMatrix in="SourceAlpha" type="matrix" values="0 0 0 0 0 0 0 0 0 0 0 0 0 0 0 0 0 0 127 0"/>
<feOffset/>
<feGaussianBlur stdDeviation="2.5"/>
<feColorMatrix type="matrix" values="0 0 0 0 0 0 0 0 0 0 0 0 0 0 0 0 0 0 0.15 0"/>
<feBlend mode="overlay" in2="BackgroundImageFix" result="effect1_dropShadow"/>
<feBlend mode="normal" in="SourceGraphic" in2="effect1_dropShadow" result="shape"/>
</filter>
<clipPath id="clip0">
<rect width="1440" height="660" fill="white" transform="translate(-29 -140)"/>
</clipPath>
</defs>
</svg>
