<svg width="18" height="16" viewBox="0 0 18 16" fill="none" xmlns="http://www.w3.org/2000/svg">
<rect width="18" height="16" fill="#E5E5E5"/>
<g clip-path="url(#clip0)">
<rect width="1440" height="660" transform="translate(-29 -140)" fill="white"/>
<g filter="url(#filter0_d)">
<rect x="-29" y="-140" width="76" height="660" fill="white"/>
</g>
<path d="M14.2234 16C15.7264 16 16.875 14.68 16.875 13.1429V4.57143H1.125V13.1429C1.125 14.68 2.27363 16 3.77663 16H14.2234ZM6.1875 6.85714H11.8125C11.9617 6.85714 12.1048 6.91735 12.2102 7.02451C12.3157 7.13167 12.375 7.27702 12.375 7.42857C12.375 7.58012 12.3157 7.72547 12.2102 7.83263C12.1048 7.9398 11.9617 8 11.8125 8H6.1875C6.03832 8 5.89524 7.9398 5.78975 7.83263C5.68426 7.72547 5.625 7.58012 5.625 7.42857C5.625 7.27702 5.68426 7.13167 5.78975 7.02451C5.89524 6.91735 6.03832 6.85714 6.1875 6.85714ZM0.9 0C0.661305 0 0.432387 0.0963262 0.263604 0.267788C0.0948212 0.43925 0 0.671802 0 0.914286L0 2.28571C0 2.5282 0.0948212 2.76075 0.263604 2.93221C0.432387 3.10367 0.661305 3.2 0.9 3.2H17.1C17.3387 3.2 17.5676 3.10367 17.7364 2.93221C17.9052 2.76075 18 2.5282 18 2.28571V0.914286C18 0.671802 17.9052 0.43925 17.7364 0.267788C17.5676 0.0963262 17.3387 0 17.1 0H0.9Z" fill="#0254D7"/>
</g>
<defs>
<filter id="filter0_d" x="-34" y="-145" width="86" height="670" filterUnits="userSpaceOnUse" color-interpolation-filters="sRGB">
<feFlood flood-opacity="0" result="BackgroundImageFix"/>
<feColorMatrix in="SourceAlpha" type="matrix" values="0 0 0 0 0 0 0 0 0 0 0 0 0 0 0 0 0 0 127 0"/>
<feOffset/>
<feGaussianBlur stdDeviation="2.5"/>
<feColorMatrix type="matrix" values="0 0 0 0 0 0 0 0 0 0 0 0 0 0 0 0 0 0 0.15 0"/>
<feBlend mode="overlay" in2="BackgroundImageFix" result="effect1_dropShadow"/>
<feBlend mode="normal" in="SourceGraphic" in2="effect1_dropShadow" result="shape"/>
</filter>
<clipPath id="clip0">
<rect width="1440" height="660" fill="white" transform="translate(-29 -140)"/>
</clipPath>
</defs>
</svg>
