<svg width="14" height="14" viewBox="0 0 14 14" fill="none" xmlns="http://www.w3.org/2000/svg">
<path d="M9.80019 0C12.1197 0 14 1.8804 14 4.2C14 5.27611 13.5925 6.28904 12.8773 7.05847L12.7444 7.19489L6.63569 13.3037L6.5985 13.3383L6.5595 13.3698C6.09107 13.7731 5.49259 14 4.86049 14C3.42198 14 2.25584 12.8338 2.25584 11.3952C2.25584 10.7643 2.48194 10.1674 2.8827 9.7002L2.9865 9.58617L2.99706 9.57782L8.10054 4.46516C8.37365 4.19155 8.81685 4.19116 9.09044 4.46429C9.36403 4.73742 9.36442 5.18063 9.09131 5.45424L3.98783 10.5669L3.98017 10.5727C3.77277 10.7945 3.65577 11.0848 3.65577 11.3952C3.65577 12.0606 4.19515 12.6 4.86049 12.6C5.12575 12.6 5.3763 12.5146 5.58232 12.36L5.6678 12.2895L5.66834 12.2906L11.7597 6.19995L11.8707 6.08487C12.3363 5.57409 12.6001 4.90875 12.6001 4.2C12.6001 2.6536 11.3465 1.4 9.80019 1.4C9.05708 1.4 8.36203 1.69022 7.8437 2.19701L7.73538 2.30889L7.72244 2.31797L1.19503 8.84819C0.921738 9.12162 0.478543 9.12171 0.205127 8.84841C-0.0682891 8.5751 -0.0683882 8.13189 0.204905 7.85846L6.72088 1.33927L6.75351 1.30915C7.54021 0.480039 8.63244 0 9.80019 0Z" fill="#2F405B"/>
</svg>
