<svg width="14" height="10" viewBox="0 0 14 10" fill="none" xmlns="http://www.w3.org/2000/svg">
<path d="M3.45714 6.51434L1.07304 4.18025C0.827565 3.93994 0.429579 3.93994 0.184102 4.18025C-0.0613675 4.42056 -0.0613675 4.81022 0.184102 5.05053L3.01268 7.81976C3.25815 8.06007 3.65614 8.06007 3.90161 7.81976L10.8159 1.05053C11.0614 0.810204 11.0614 0.420567 10.8159 0.18024C10.5704 -0.0600801 10.1724 -0.0600801 9.92697 0.18024L3.45714 6.51434Z" fill="#0254D7"/>
<path d="M5.6412 8.51434L5.07684 7.99999C4.83137 7.75969 4.42956 8.27404 4.18409 8.51434C3.93862 8.75465 3.93864 8.62614 4.18411 8.86645L5.19673 9.81976C5.44221 10.0601 5.8402 10.0601 6.08567 9.81976L13 3.05053C13.2454 2.8102 13.2454 2.42057 13 2.18024C12.7545 1.93992 12.3565 1.93992 12.111 2.18024L5.6412 8.51434Z" fill="#0254D7"/>
</svg>
