<svg width="9" height="12" viewBox="0 0 9 12" fill="none" xmlns="http://www.w3.org/2000/svg">
<path fill-rule="evenodd" clip-rule="evenodd" d="M0 10.8V1.2C0 0.54 0.578571 0 1.28571 0H4.5C6.42857 0 8.33529 0.84 8.35714 2.9514C8.35714 4.0542 7.75864 5.1894 6.72943 5.5458V5.6268C8.03636 5.9352 9 6.843 9 8.4648C9 9.078 8.8695 9.6078 8.63164 10.0566C7.93093 11.376 6.48643 12 4.5 12H1.28571C0.578571 12 0 11.46 0 10.8ZM1.92857 10.2H4.5C6.14957 10.2 7.07143 9.48 7.07143 8.4C7.07143 7.32 6.16629 6.6 4.5 6.6H1.92857V10.2ZM1.92857 4.8H3.85714C5.39229 4.8 6.42857 4.29 6.42857 3.27C6.42857 2.25 5.46429 1.8 3.85457 1.8H1.92857V4.8Z" fill="#2F405B"/>
</svg>
