<svg width="14" height="14" viewBox="0 0 14 14" fill="none" xmlns="http://www.w3.org/2000/svg">
<path d="M11.4722 0C12.8683 0 14 1.13172 14 2.52778V11.4722C14 12.8683 12.8683 14 11.4722 14H2.52778C1.13172 14 0 12.8683 0 11.4722V2.52778C0 1.13172 1.13172 0 2.52778 0H11.4722ZM11.4722 1.16667H2.52778C1.77606 1.16667 1.16667 1.77606 1.16667 2.52778V11.4722C1.16667 12.2239 1.77606 12.8333 2.52778 12.8333H11.4722C12.2239 12.8333 12.8333 12.2239 12.8333 11.4722V2.52778C12.8333 1.77606 12.2239 1.16667 11.4722 1.16667ZM3.69444 8.16667C4.23139 8.16667 4.66667 8.60195 4.66667 9.13889C4.66667 9.67583 4.23139 10.1111 3.69444 10.1111C3.1575 10.1111 2.72222 9.67583 2.72222 9.13889C2.72222 8.60195 3.1575 8.16667 3.69444 8.16667ZM7 8.16667C7.53694 8.16667 7.97222 8.60195 7.97222 9.13889C7.97222 9.67583 7.53694 10.1111 7 10.1111C6.46306 10.1111 6.02778 9.67583 6.02778 9.13889C6.02778 8.60195 6.46306 8.16667 7 8.16667ZM3.69444 4.27778C4.23139 4.27778 4.66667 4.71306 4.66667 5.25C4.66667 5.78694 4.23139 6.22222 3.69444 6.22222C3.1575 6.22222 2.72222 5.78694 2.72222 5.25C2.72222 4.71306 3.1575 4.27778 3.69444 4.27778ZM7 4.27778C7.53694 4.27778 7.97222 4.71306 7.97222 5.25C7.97222 5.78694 7.53694 6.22222 7 6.22222C6.46306 6.22222 6.02778 5.78694 6.02778 5.25C6.02778 4.71306 6.46306 4.27778 7 4.27778ZM10.3056 4.27778C10.8425 4.27778 11.2778 4.71306 11.2778 5.25C11.2778 5.78694 10.8425 6.22222 10.3056 6.22222C9.76861 6.22222 9.33333 5.78694 9.33333 5.25C9.33333 4.71306 9.76861 4.27778 10.3056 4.27778Z" fill="#0254D7"/>
</svg>
