<svg width="14" height="14" viewBox="0 0 14 14" fill="none" xmlns="http://www.w3.org/2000/svg">
<mask id="path-1-inside-1" fill="white">
<path d="M5.44444 0H0.777778C0.571498 0 0.373667 0.0819442 0.227806 0.227806C0.0819442 0.373667 0 0.571498 0 0.777778V5.44444C0 5.65072 0.0819442 5.84855 0.227806 5.99442C0.373667 6.14028 0.571498 6.22222 0.777778 6.22222H5.44444C5.65072 6.22222 5.84855 6.14028 5.99442 5.99442C6.14028 5.84855 6.22222 5.65072 6.22222 5.44444V0.777778C6.22222 0.571498 6.14028 0.373667 5.99442 0.227806C5.84855 0.0819442 5.65072 0 5.44444 0ZM4.66667 4.66667H1.55556V1.55556H4.66667V4.66667ZM13.2222 0H8.55556C8.34928 0 8.15145 0.0819442 8.00558 0.227806C7.85972 0.373667 7.77778 0.571498 7.77778 0.777778V5.44444C7.77778 5.65072 7.85972 5.84855 8.00558 5.99442C8.15145 6.14028 8.34928 6.22222 8.55556 6.22222H13.2222C13.4285 6.22222 13.6263 6.14028 13.7722 5.99442C13.9181 5.84855 14 5.65072 14 5.44444V0.777778C14 0.571498 13.9181 0.373667 13.7722 0.227806C13.6263 0.0819442 13.4285 0 13.2222 0ZM12.4444 4.66667H9.33333V1.55556H12.4444V4.66667ZM5.44444 7.77778H0.777778C0.571498 7.77778 0.373667 7.85972 0.227806 8.00558C0.0819442 8.15145 0 8.34928 0 8.55556V13.2222C0 13.4285 0.0819442 13.6263 0.227806 13.7722C0.373667 13.9181 0.571498 14 0.777778 14H5.44444C5.65072 14 5.84855 13.9181 5.99442 13.7722C6.14028 13.6263 6.22222 13.4285 6.22222 13.2222V8.55556C6.22222 8.34928 6.14028 8.15145 5.99442 8.00558C5.84855 7.85972 5.65072 7.77778 5.44444 7.77778ZM4.66667 12.4444H1.55556V9.33333H4.66667V12.4444ZM10.8889 7.77778C9.17311 7.77778 7.77778 9.17311 7.77778 10.8889C7.77778 12.6047 9.17311 14 10.8889 14C12.6047 14 14 12.6047 14 10.8889C14 9.17311 12.6047 7.77778 10.8889 7.77778ZM10.8889 12.4444C10.031 12.4444 9.33333 11.7468 9.33333 10.8889C9.33333 10.031 10.031 9.33333 10.8889 9.33333C11.7468 9.33333 12.4444 10.031 12.4444 10.8889C12.4444 11.7468 11.7468 12.4444 10.8889 12.4444Z"/>
</mask>
<path d="M0.777778 0V-3V0ZM0 0.777778H-3H0ZM0 5.44444H-3H0ZM4.66667 4.66667V7.66667H7.66667V4.66667H4.66667ZM1.55556 4.66667H-1.44444V7.66667H1.55556V4.66667ZM1.55556 1.55556V-1.44444H-1.44444V1.55556H1.55556ZM4.66667 1.55556H7.66667V-1.44444H4.66667V1.55556ZM8.55556 0V-3V0ZM12.4444 4.66667V7.66667H15.4444V4.66667H12.4444ZM9.33333 4.66667H6.33333V7.66667H9.33333V4.66667ZM9.33333 1.55556V-1.44444H6.33333V1.55556H9.33333ZM12.4444 1.55556H15.4444V-1.44444H12.4444V1.55556ZM0 8.55556H-3H0ZM0 13.2222H-3H0ZM4.66667 12.4444V15.4444H7.66667V12.4444H4.66667ZM1.55556 12.4444H-1.44444V15.4444H1.55556V12.4444ZM1.55556 9.33333V6.33333H-1.44444V9.33333H1.55556ZM4.66667 9.33333H7.66667V6.33333H4.66667V9.33333ZM5.44444 -3H0.777778V3H5.44444V-3ZM0.777778 -3C-0.224151 -3 -1.18504 -2.60199 -1.89351 -1.89351L2.34913 2.34913C1.93238 2.76587 1.36715 3 0.777778 3V-3ZM-1.89351 -1.89351C-2.60199 -1.18504 -3 -0.224151 -3 0.777778H3C3 1.36715 2.76587 1.93238 2.34913 2.34913L-1.89351 -1.89351ZM-3 0.777778V5.44444H3V0.777778H-3ZM-3 5.44444C-3 6.44637 -2.60199 7.40727 -1.89351 8.11574L2.34913 3.8731C2.76587 4.28984 3 4.85507 3 5.44444H-3ZM-1.89351 8.11574C-1.18504 8.82421 -0.224153 9.22222 0.777778 9.22222V3.22222C1.36715 3.22222 1.93238 3.45635 2.34913 3.8731L-1.89351 8.11574ZM0.777778 9.22222H5.44444V3.22222H0.777778V9.22222ZM5.44444 9.22222C6.44638 9.22222 7.40727 8.82421 8.11574 8.11574L3.8731 3.8731C4.28984 3.45635 4.85507 3.22222 5.44444 3.22222V9.22222ZM8.11574 8.11574C8.82421 7.40727 9.22222 6.44638 9.22222 5.44444H3.22222C3.22222 4.85507 3.45635 4.28984 3.8731 3.8731L8.11574 8.11574ZM9.22222 5.44444V0.777778H3.22222V5.44444H9.22222ZM9.22222 0.777778C9.22222 -0.224153 8.82421 -1.18504 8.11574 -1.89351L3.8731 2.34913C3.45635 1.93238 3.22222 1.36715 3.22222 0.777778H9.22222ZM8.11574 -1.89351C7.40727 -2.60199 6.44637 -3 5.44444 -3V3C4.85507 3 4.28984 2.76587 3.8731 2.34913L8.11574 -1.89351ZM4.66667 1.66667H1.55556V7.66667H4.66667V1.66667ZM4.55556 4.66667V1.55556H-1.44444V4.66667H4.55556ZM1.55556 4.55556H4.66667V-1.44444H1.55556V4.55556ZM1.66667 1.55556V4.66667H7.66667V1.55556H1.66667ZM13.2222 -3H8.55556V3H13.2222V-3ZM8.55556 -3C7.55363 -3 6.59273 -2.60199 5.88426 -1.89351L10.1269 2.34913C9.71016 2.76587 9.14493 3 8.55556 3V-3ZM5.88426 -1.89351C5.17579 -1.18504 4.77778 -0.224153 4.77778 0.777778H10.7778C10.7778 1.36715 10.5437 1.93238 10.1269 2.34913L5.88426 -1.89351ZM4.77778 0.777778V5.44444H10.7778V0.777778H4.77778ZM4.77778 5.44444C4.77778 6.44638 5.17579 7.40727 5.88426 8.11574L10.1269 3.8731C10.5437 4.28984 10.7778 4.85507 10.7778 5.44444H4.77778ZM5.88426 8.11574C6.59273 8.82421 7.55362 9.22222 8.55556 9.22222V3.22222C9.14493 3.22222 9.71016 3.45635 10.1269 3.8731L5.88426 8.11574ZM8.55556 9.22222H13.2222V3.22222H8.55556V9.22222ZM13.2222 9.22222C14.2242 9.22222 15.185 8.82421 15.8935 8.11574L11.6509 3.8731C12.0676 3.45635 12.6329 3.22222 13.2222 3.22222V9.22222ZM15.8935 8.11574C16.602 7.40726 17 6.44637 17 5.44444H11C11 4.85508 11.2341 4.28985 11.6509 3.8731L15.8935 8.11574ZM17 5.44444V0.777778H11V5.44444H17ZM17 0.777778C17 -0.224145 16.602 -1.18504 15.8935 -1.89351L11.6509 2.34913C11.2341 1.93237 11 1.36714 11 0.777778H17ZM15.8935 -1.89351C15.185 -2.60199 14.2241 -3 13.2222 -3V3C12.6329 3 12.0676 2.76588 11.6509 2.34913L15.8935 -1.89351ZM12.4444 1.66667H9.33333V7.66667H12.4444V1.66667ZM12.3333 4.66667V1.55556H6.33333V4.66667H12.3333ZM9.33333 4.55556H12.4444V-1.44444H9.33333V4.55556ZM9.44444 1.55556V4.66667H15.4444V1.55556H9.44444ZM5.44444 4.77778H0.777778V10.7778H5.44444V4.77778ZM0.777778 4.77778C-0.224153 4.77778 -1.18504 5.17579 -1.89351 5.88426L2.34913 10.1269C1.93238 10.5437 1.36715 10.7778 0.777778 10.7778V4.77778ZM-1.89351 5.88426C-2.60199 6.59273 -3 7.55363 -3 8.55556H3C3 9.14493 2.76587 9.71016 2.34913 10.1269L-1.89351 5.88426ZM-3 8.55556V13.2222H3V8.55556H-3ZM-3 13.2222C-3 14.2241 -2.60199 15.185 -1.89351 15.8935L2.34913 11.6509C2.76588 12.0676 3 12.6329 3 13.2222H-3ZM-1.89351 15.8935C-1.18504 16.602 -0.224145 17 0.777778 17V11C1.36714 11 1.93237 11.2341 2.34913 11.6509L-1.89351 15.8935ZM0.777778 17H5.44444V11H0.777778V17ZM5.44444 17C6.44637 17 7.40726 16.602 8.11574 15.8935L3.8731 11.6509C4.28985 11.2341 4.85508 11 5.44444 11V17ZM8.11574 15.8935C8.82421 15.185 9.22222 14.2242 9.22222 13.2222H3.22222C3.22222 12.6329 3.45635 12.0676 3.8731 11.6509L8.11574 15.8935ZM9.22222 13.2222V8.55556H3.22222V13.2222H9.22222ZM9.22222 8.55556C9.22222 7.55362 8.82421 6.59273 8.11574 5.88426L3.8731 10.1269C3.45635 9.71016 3.22222 9.14493 3.22222 8.55556H9.22222ZM8.11574 5.88426C7.40727 5.17579 6.44638 4.77778 5.44444 4.77778V10.7778C4.85507 10.7778 4.28984 10.5437 3.8731 10.1269L8.11574 5.88426ZM4.66667 9.44444H1.55556V15.4444H4.66667V9.44444ZM4.55556 12.4444V9.33333H-1.44444V12.4444H4.55556ZM1.55556 12.3333H4.66667V6.33333H1.55556V12.3333ZM1.66667 9.33333V12.4444H7.66667V9.33333H1.66667ZM10.8889 4.77778C7.51626 4.77778 4.77778 7.51626 4.77778 10.8889H10.7778C10.7778 10.8699 10.7811 10.8584 10.785 10.8491C10.7898 10.8378 10.7982 10.8242 10.8112 10.8112C10.8242 10.7982 10.8378 10.7898 10.8491 10.785C10.8584 10.7811 10.8699 10.7778 10.8889 10.7778V4.77778ZM4.77778 10.8889C4.77778 14.2615 7.51626 17 10.8889 17V11C10.8699 11 10.8584 10.9967 10.8491 10.9928C10.8378 10.988 10.8242 10.9795 10.8112 10.9665C10.7982 10.9535 10.7898 10.94 10.785 10.9287C10.7811 10.9194 10.7778 10.9079 10.7778 10.8889H4.77778ZM10.8889 17C14.2615 17 17 14.2615 17 10.8889H11C11 10.9079 10.9967 10.9194 10.9928 10.9287C10.988 10.94 10.9795 10.9535 10.9665 10.9665C10.9535 10.9795 10.94 10.988 10.9287 10.9928C10.9194 10.9967 10.9079 11 10.8889 11V17ZM17 10.8889C17 7.51626 14.2615 4.77778 10.8889 4.77778V10.7778C10.9079 10.7778 10.9194 10.7811 10.9287 10.785C10.94 10.7898 10.9535 10.7982 10.9665 10.8112C10.9795 10.8242 10.988 10.8378 10.9928 10.8491C10.9967 10.8584 11 10.8699 11 10.8889H17ZM10.8889 9.44444C11.6879 9.44444 12.3333 10.0899 12.3333 10.8889H6.33333C6.33333 13.4036 8.37415 15.4444 10.8889 15.4444V9.44444ZM12.3333 10.8889C12.3333 11.6879 11.6879 12.3333 10.8889 12.3333V6.33333C8.37415 6.33333 6.33333 8.37415 6.33333 10.8889H12.3333ZM10.8889 12.3333C10.0899 12.3333 9.44444 11.6879 9.44444 10.8889H15.4444C15.4444 8.37415 13.4036 6.33333 10.8889 6.33333V12.3333ZM9.44444 10.8889C9.44444 10.0899 10.0899 9.44444 10.8889 9.44444V15.4444C13.4036 15.4444 15.4444 13.4036 15.4444 10.8889H9.44444Z" fill="#0254D7" mask="url(#path-1-inside-1)"/>
</svg>
