<svg width="32" height="32" viewBox="0 0 32 32" fill="none" xmlns="http://www.w3.org/2000/svg">
<rect width="32" height="32" fill="#E5E5E5"/>
<g clip-path="url(#clip0)">
<rect width="1440" height="962" transform="translate(-749 -281)" fill="white"/>
<rect x="-672" y="-225" width="1363" height="906" fill="#FAFAFA"/>
<rect x="-482" y="-105" width="1163" height="668" rx="8" fill="white"/>
<g filter="url(#filter0_d)">
<rect x="-472" y="-71" width="677" height="297" rx="8" fill="white"/>
<rect x="-471.5" y="-70.5" width="676" height="296" rx="7.5" stroke="#E6E6E6"/>
</g>
<g filter="url(#filter1_d)">
<rect x="-6" y="-6" width="195" height="80" rx="8" fill="white"/>
</g>
<circle cx="16" cy="16" r="16" fill="#0254D7" fill-opacity="0.15"/>
<path d="M16.3555 8.5332C20.2829 8.5332 23.4666 11.717 23.4666 15.6443C23.4666 19.5717 20.2829 22.7554 16.3555 22.7554C15.2047 22.7554 14.0926 22.4813 13.0935 21.9647L10.3729 22.7237C9.90012 22.8557 9.40978 22.5794 9.27774 22.1066C9.23405 21.9501 9.23407 21.7847 9.27777 21.6284L10.037 18.9099C9.51913 17.9099 9.24438 16.7965 9.24438 15.6443C9.24438 11.717 12.4281 8.5332 16.3555 8.5332ZM16.3555 9.59987C13.0172 9.59987 10.3111 12.3061 10.3111 15.6443C10.3111 16.6894 10.5761 17.6947 11.0741 18.5865L11.1812 18.7784L10.39 21.6115L13.2249 20.8206L13.4165 20.9275C14.3075 21.4243 15.3117 21.6888 16.3555 21.6888C19.6938 21.6888 22.3999 18.9826 22.3999 15.6443C22.3999 12.3061 19.6938 9.59987 16.3555 9.59987ZM14.0444 16.3554H17.2431C17.5377 16.3554 17.7765 16.5942 17.7765 16.8888C17.7765 17.1588 17.5758 17.3819 17.3155 17.4172L17.2431 17.4221H14.0444C13.7498 17.4221 13.5111 17.1833 13.5111 16.8888C13.5111 16.6188 13.7117 16.3956 13.972 16.3603L14.0444 16.3554H17.2431H14.0444ZM14.0444 13.8665H18.6698C18.9643 13.8665 19.2031 14.1053 19.2031 14.3999C19.2031 14.6699 19.0025 14.893 18.7422 14.9283L18.6698 14.9332H14.0444C13.7498 14.9332 13.5111 14.6944 13.5111 14.3999C13.5111 14.1299 13.7117 13.9067 13.972 13.8714L14.0444 13.8665H18.6698H14.0444Z" fill="#0254D7"/>
<path d="M24.3734 9.99007H22.3823C22.1762 9.99007 22.0089 9.82282 22.0089 9.61674V6.63007C22.0089 6.42399 22.1762 6.25674 22.3823 6.25674C22.5884 6.25674 22.7556 6.42399 22.7556 6.63007V9.2434H24.3734C24.5795 9.2434 24.7467 9.41066 24.7467 9.61674C24.7467 9.82282 24.5795 9.99007 24.3734 9.99007ZM22.7556 4.26562C20.0069 4.26562 17.7778 6.49467 17.7778 9.2434C17.7778 11.9921 20.0069 14.2212 22.7556 14.2212C25.5043 14.2212 27.7334 11.9921 27.7334 9.2434C27.7334 6.49467 25.5043 4.26562 22.7556 4.26562Z" fill="#0254D7"/>
</g>
<defs>
<filter id="filter0_d" x="-484" y="-83" width="701" height="321" filterUnits="userSpaceOnUse" color-interpolation-filters="sRGB">
<feFlood flood-opacity="0" result="BackgroundImageFix"/>
<feColorMatrix in="SourceAlpha" type="matrix" values="0 0 0 0 0 0 0 0 0 0 0 0 0 0 0 0 0 0 127 0"/>
<feOffset/>
<feGaussianBlur stdDeviation="6"/>
<feColorMatrix type="matrix" values="0 0 0 0 0 0 0 0 0 0 0 0 0 0 0 0 0 0 0.12 0"/>
<feBlend mode="normal" in2="BackgroundImageFix" result="effect1_dropShadow"/>
<feBlend mode="normal" in="SourceGraphic" in2="effect1_dropShadow" result="shape"/>
</filter>
<filter id="filter1_d" x="-16" y="-16" width="215" height="100" filterUnits="userSpaceOnUse" color-interpolation-filters="sRGB">
<feFlood flood-opacity="0" result="BackgroundImageFix"/>
<feColorMatrix in="SourceAlpha" type="matrix" values="0 0 0 0 0 0 0 0 0 0 0 0 0 0 0 0 0 0 127 0"/>
<feOffset/>
<feGaussianBlur stdDeviation="5"/>
<feColorMatrix type="matrix" values="0 0 0 0 0 0 0 0 0 0 0 0 0 0 0 0 0 0 0.15 0"/>
<feBlend mode="normal" in2="BackgroundImageFix" result="effect1_dropShadow"/>
<feBlend mode="normal" in="SourceGraphic" in2="effect1_dropShadow" result="shape"/>
</filter>
<clipPath id="clip0">
<rect width="1440" height="962" fill="white" transform="translate(-749 -281)"/>
</clipPath>
</defs>
</svg>
