<svg width="18" height="15" viewBox="0 0 18 15" fill="none" xmlns="http://www.w3.org/2000/svg">
<rect width="18" height="15" fill="#E5E5E5"/>
<g clip-path="url(#clip0)">
<rect width="1440" height="962" transform="translate(-306 -400)" fill="white"/>
<rect x="-229" y="-344" width="1363" height="906" fill="#FAFAFA"/>
<rect x="-39" y="-224" width="1163" height="668" rx="8" fill="white"/>
<g filter="url(#filter0_d)">
<rect x="-29" y="-190" width="677" height="297" rx="8" fill="white"/>
<rect x="-28.5" y="-189.5" width="676" height="296" rx="7.5" stroke="#E6E6E6"/>
</g>
<g filter="url(#filter1_d)">
<rect x="-13" y="-15" width="195" height="80" rx="8" fill="white"/>
</g>
<circle cx="9" cy="7" r="16" fill="#0254D7" fill-opacity="0.15"/>
<path d="M6.34777 1.9043C9.85355 1.9043 12.6955 4.74629 12.6955 8.25207C12.6955 11.7578 9.85355 14.5998 6.34777 14.5998C5.32052 14.5998 4.3278 14.3552 3.43596 13.894L1.00742 14.5715C0.585342 14.6894 0.147637 14.4427 0.0297747 14.0207C-0.00922696 13.881 -0.00920808 13.7333 0.0298015 13.5938L0.70753 11.1671C0.245257 10.2745 0 9.28057 0 8.25207C0 4.74629 2.84199 1.9043 6.34777 1.9043ZM6.34777 2.85646C3.36786 2.85646 0.952165 5.27216 0.952165 8.25207C0.952165 9.18494 1.18879 10.0824 1.6333 10.8784L1.72893 11.0497L1.0226 13.5787L3.5532 12.8727L3.72429 12.9681C4.51965 13.4116 5.41603 13.6477 6.34777 13.6477C9.32768 13.6477 11.7434 11.232 11.7434 8.25207C11.7434 5.27216 9.32768 2.85646 6.34777 2.85646ZM4.28474 8.88684H7.14014C7.40307 8.88684 7.61622 9.09999 7.61622 9.36293C7.61622 9.60395 7.43712 9.80314 7.20474 9.83466L7.14014 9.83901H4.28474C4.02181 9.83901 3.80866 9.62586 3.80866 9.36293C3.80866 9.12191 3.98777 8.92272 4.22014 8.89119L4.28474 8.88684H7.14014H4.28474ZM4.28474 6.66512H8.41364C8.67657 6.66512 8.88972 6.87827 8.88972 7.14121C8.88972 7.38223 8.71062 7.58142 8.47824 7.61294L8.41364 7.61729H4.28474C4.02181 7.61729 3.80866 7.40414 3.80866 7.14121C3.80866 6.90019 3.98777 6.701 4.22014 6.66947L4.28474 6.66512H8.41364H4.28474Z" fill="#0254D7"/>
<path d="M12.7621 0.122861L12.7885 0.092961C12.9029 -0.0214525 13.083 -0.0302536 13.2075 0.0665578L13.2374 0.092961L15.2347 2.09L17.232 0.092961C17.3559 -0.0309869 17.5569 -0.0309869 17.6808 0.092961C17.8048 0.216909 17.8048 0.417868 17.6808 0.541816L15.6838 2.53911L17.6808 4.5364C17.7952 4.65081 17.804 4.83085 17.7072 4.95536L17.6808 4.98526C17.5664 5.09967 17.3864 5.10847 17.2619 5.01166L17.232 4.98526L15.2347 2.98821L13.2374 4.98526C13.1134 5.1092 12.9125 5.1092 12.7885 4.98526C12.6646 4.86131 12.6646 4.66035 12.7885 4.5364L14.7856 2.53911L12.7885 0.541816C12.6741 0.427403 12.6653 0.24737 12.7621 0.122861L12.7885 0.092961L12.7621 0.122861Z" fill="#0254D7"/>
</g>
<defs>
<filter id="filter0_d" x="-41" y="-202" width="701" height="321" filterUnits="userSpaceOnUse" color-interpolation-filters="sRGB">
<feFlood flood-opacity="0" result="BackgroundImageFix"/>
<feColorMatrix in="SourceAlpha" type="matrix" values="0 0 0 0 0 0 0 0 0 0 0 0 0 0 0 0 0 0 127 0"/>
<feOffset/>
<feGaussianBlur stdDeviation="6"/>
<feColorMatrix type="matrix" values="0 0 0 0 0 0 0 0 0 0 0 0 0 0 0 0 0 0 0.12 0"/>
<feBlend mode="normal" in2="BackgroundImageFix" result="effect1_dropShadow"/>
<feBlend mode="normal" in="SourceGraphic" in2="effect1_dropShadow" result="shape"/>
</filter>
<filter id="filter1_d" x="-23" y="-25" width="215" height="100" filterUnits="userSpaceOnUse" color-interpolation-filters="sRGB">
<feFlood flood-opacity="0" result="BackgroundImageFix"/>
<feColorMatrix in="SourceAlpha" type="matrix" values="0 0 0 0 0 0 0 0 0 0 0 0 0 0 0 0 0 0 127 0"/>
<feOffset/>
<feGaussianBlur stdDeviation="5"/>
<feColorMatrix type="matrix" values="0 0 0 0 0 0 0 0 0 0 0 0 0 0 0 0 0 0 0.15 0"/>
<feBlend mode="normal" in2="BackgroundImageFix" result="effect1_dropShadow"/>
<feBlend mode="normal" in="SourceGraphic" in2="effect1_dropShadow" result="shape"/>
</filter>
<clipPath id="clip0">
<rect width="1440" height="962" fill="white" transform="translate(-306 -400)"/>
</clipPath>
</defs>
</svg>
