<svg width="13" height="12" viewBox="0 0 13 12" fill="none" xmlns="http://www.w3.org/2000/svg">
<path fill-rule="evenodd" clip-rule="evenodd" d="M3.73798 2.69966C3.77795 2.73952 3.80966 2.78688 3.8313 2.83902C3.85293 2.89116 3.86407 2.94706 3.86407 3.00351C3.86407 3.05996 3.85293 3.11586 3.8313 3.168C3.80966 3.22014 3.77795 3.2675 3.73798 3.30736L1.03678 6.0077L3.73798 8.70805C3.81857 8.78863 3.86384 8.89793 3.86384 9.0119C3.86384 9.12586 3.81857 9.23516 3.73798 9.31575C3.6574 9.39634 3.5481 9.44161 3.43413 9.44161C3.32016 9.44161 3.21087 9.39634 3.13028 9.31575L0.126085 6.31156C0.0861178 6.27169 0.0544083 6.22433 0.0327725 6.17219C0.0111368 6.12005 0 6.06415 0 6.0077C0 5.95125 0.0111368 5.89536 0.0327725 5.84322C0.0544083 5.79108 0.0861178 5.74372 0.126085 5.70385L3.13028 2.69966C3.17014 2.65969 3.2175 2.62798 3.26964 2.60634C3.32178 2.58471 3.37768 2.57357 3.43413 2.57357C3.49058 2.57357 3.54648 2.58471 3.59862 2.60634C3.65076 2.62798 3.69812 2.65969 3.73798 2.69966ZM9.13867 2.69966C9.0987 2.73952 9.06699 2.78688 9.04535 2.83902C9.02372 2.89116 9.01258 2.94706 9.01258 3.00351C9.01258 3.05996 9.02372 3.11586 9.04535 3.168C9.06699 3.22014 9.0987 3.2675 9.13867 3.30736L11.8399 6.0077L9.13867 8.70805C9.09876 8.74795 9.06711 8.79532 9.04552 8.84745C9.02392 8.89959 9.0128 8.95547 9.0128 9.0119C9.0128 9.06833 9.02392 9.12421 9.04552 9.17634C9.06711 9.22848 9.09876 9.27585 9.13867 9.31575C9.17857 9.35565 9.22594 9.38731 9.27807 9.4089C9.33021 9.4305 9.38609 9.44161 9.44252 9.44161C9.49895 9.44161 9.55483 9.4305 9.60696 9.4089C9.6591 9.38731 9.70647 9.35565 9.74637 9.31575L12.7506 6.31156C12.7905 6.27169 12.8222 6.22433 12.8439 6.17219C12.8655 6.12005 12.8766 6.06415 12.8766 6.0077C12.8766 5.95125 12.8655 5.89536 12.8439 5.84322C12.8222 5.79108 12.7905 5.74372 12.7506 5.70385L9.74637 2.69966C9.7065 2.65969 9.65914 2.62798 9.607 2.60634C9.55486 2.58471 9.49897 2.57357 9.44252 2.57357C9.38607 2.57357 9.33017 2.58471 9.27803 2.60634C9.22589 2.62798 9.17853 2.65969 9.13867 2.69966ZM8.28118 0.0182C8.38985 0.0518245 8.48073 0.127216 8.53384 0.227807C8.58695 0.328399 8.59796 0.445962 8.56444 0.554663L5.13107 11.7131C5.09431 11.8177 5.01846 11.9041 4.91943 11.954C4.82041 12.004 4.70589 12.0136 4.59989 11.981C4.4939 11.9484 4.40464 11.876 4.35085 11.779C4.29706 11.682 4.28291 11.5679 4.31136 11.4607L7.74472 0.302311C7.77834 0.193642 7.85374 0.102767 7.95433 0.0496541C8.05492 -0.0034583 8.17248 -0.014463 8.28118 0.0190583V0.0182Z" fill="#2F405B"/>
</svg>
