<svg width="15" height="17" viewBox="0 0 15 17" fill="none" xmlns="http://www.w3.org/2000/svg">
<path d="M3.92945 2.44447C4.65782 1.21357 6.02421 0.384766 7.58969 0.384766C9.92021 0.384766 11.8095 2.22155 11.8095 4.48733C11.8095 6.75311 9.92021 8.58989 7.58969 8.58989C5.90728 8.58989 4.45483 7.63266 3.7771 6.24783C3.51564 6.43344 3.19342 6.54299 2.84489 6.54299H2.31729V6.80416C2.31729 6.99902 2.39295 7.17668 2.51726 7.31092C2.66218 7.15279 2.87336 7.05318 3.1085 7.05318C3.54547 7.05318 3.8997 7.39719 3.8997 7.82154C3.8997 8.24589 3.54547 8.58989 3.1085 8.58989C3.08276 8.58989 3.05732 8.5887 3.03221 8.58637C2.049 8.5534 1.26234 7.7681 1.26234 6.80416L1.26247 2.9565C1.26247 2.67327 1.49863 2.44368 1.78994 2.44368L3.89983 2.44368C3.90977 2.44368 3.91964 2.44394 3.92945 2.44447ZM4.42731 4.60944C4.49325 6.25217 5.88387 7.56425 7.58969 7.56425C9.33758 7.56425 10.7545 6.18667 10.7545 4.48733C10.7545 2.78799 9.33758 1.41041 7.58969 1.41041C5.88387 1.41041 4.49325 2.72248 4.42731 4.36521V4.60944ZM3.37236 4.34628V3.46932L2.31742 3.46932L2.31742 5.51735H2.84489C3.1362 5.51735 3.37236 5.28775 3.37236 5.00453V4.62837C3.37073 4.58155 3.36991 4.53453 3.36991 4.48733C3.36991 4.44012 3.37073 4.3931 3.37236 4.34628Z" fill="#0254D7"/>
<path d="M0.205078 11.6668C0.205078 10.5251 1.15785 9.61553 2.32417 9.61553L12.8645 9.61554C14.0296 9.61554 14.9743 10.5341 14.9743 11.6668C14.9743 13.4014 14.0957 14.7092 12.722 15.5608C11.3696 16.3991 9.54634 16.795 7.58969 16.795C5.63304 16.795 3.80979 16.3991 2.45738 15.5608C1.08365 14.7092 0.205078 13.4014 0.205078 11.6668ZM2.32417 10.6412C1.73249 10.6412 1.26002 11.0993 1.26002 11.6668C1.26002 13.0092 1.91648 14.0091 3.02454 14.696C4.15393 15.3961 5.75925 15.7694 7.58969 15.7694C9.42014 15.7694 11.0255 15.3961 12.1548 14.696C13.2629 14.0091 13.9194 13.0092 13.9194 11.6668C13.9194 11.1005 13.4469 10.6412 12.8645 10.6412L2.32417 10.6412Z" fill="#0254D7"/>
</svg>
