<svg width="13" height="13" viewBox="0 0 13 13" fill="none" xmlns="http://www.w3.org/2000/svg">
<path d="M11.2424 2.06233L11.2453 2.14163L11.2463 2.22095V9.45948C11.2463 10.7741 10.2711 11.8397 9.06818 11.8397H2.4444C2.39573 11.8397 2.34738 11.8382 2.29939 11.8353C2.64302 12.4258 3.24773 12.8179 3.93624 12.8179H9.06818C10.7655 12.8179 12.1414 11.3143 12.1414 9.45948V3.85125C12.1414 3.09912 11.7829 2.4385 11.2424 2.06233ZM2.4444 0.101562C1.3733 0.101562 0.505005 1.05045 0.505005 2.22095V9.06821C0.505005 10.2387 1.3733 11.1876 2.4444 11.1876H8.71013C9.78123 11.1876 10.6495 10.2387 10.6495 9.06821V2.22095C10.6495 1.05045 9.78123 0.101562 8.71013 0.101562H2.4444ZM1.40011 3.68822H9.75442V9.06821C9.75442 9.69848 9.28688 10.2094 8.71013 10.2094H2.4444C1.86765 10.2094 1.40011 9.69848 1.40011 9.06821V3.68822ZM2.4444 1.07974H8.71013C9.28688 1.07974 9.75442 1.59068 9.75442 2.22095V2.71004H1.40011V2.22095C1.40011 1.59068 1.86765 1.07974 2.4444 1.07974Z" fill="#0254D7"/>
</svg>
