<svg width="302" height="248" viewBox="0 0 302 248" fill="none" xmlns="http://www.w3.org/2000/svg">
<path d="M69.2351 50.1455L70.5207 156.419L126.072 183.533L124.787 77.2593L69.2351 50.1455Z" fill="#F1F8FF"/>
<path d="M52.3545 41.656L10.845 127.042L67.1674 154.532L65.8818 48.2585L52.3545 41.656Z" fill="#F1F8FF"/>
<path d="M302 161.608L189.889 106.889L191.175 213.162L260.491 246.994L302 161.608Z" fill="#F1F8FF"/>
<path d="M129.809 77.2593L131.094 183.533L186.645 210.646L185.36 104.373L129.809 77.2593Z" fill="#F1F8FF"/>
<path d="M255.194 81.7858L248.218 82.0569L248.566 91.0439L255.542 90.7728L255.194 81.7858Z" fill="#6C63FF"/>
<path d="M223.726 113.26C223.726 113.26 214.066 108.635 214.22 112.629C214.375 116.624 223.958 119.251 223.958 119.251L223.726 113.26Z" fill="white"/>
<path d="M229.026 147.056C229.026 147.056 224.468 158.233 222.785 166.299C221.101 174.365 218.536 185.465 221.835 193.337C225.134 201.21 234.513 224.346 234.609 226.843C234.706 229.339 233.806 231.874 235.799 231.797C237.792 231.719 248.638 228.298 249.078 226.781C249.519 225.263 245.378 221.424 245.378 221.424L235.153 189.32L245.821 168.404L253.516 199.607L255.023 238.55C255.023 238.55 262.42 236.263 263.494 238.221C263.494 238.221 266.808 233.592 267.229 231.576C267.65 229.559 265.664 191.134 265.664 191.134C265.664 191.134 272.454 147.368 266.973 147.581C261.491 147.794 240.023 134.628 229.026 147.056Z" fill="#1B1B1B"/>
<path d="M235.722 229.8C235.722 229.8 230.666 240.997 230.187 241.515C229.708 242.034 226.413 247.162 228.904 247.066C231.396 246.969 237.278 244.24 241.608 240.072C245.938 235.903 251.647 228.681 251.13 228.201C250.612 227.721 247.066 226.359 247.066 226.359L235.722 229.8Z" fill="#2D2C2C"/>
<path d="M255.923 236.015C255.923 236.015 255.618 241.027 254.699 243.063C253.779 245.099 253.895 248.095 256.387 247.998C258.878 247.901 265.317 246.651 265.317 246.651C265.317 246.651 265.7 243.636 265.182 243.156C264.664 242.676 262.459 237.261 263.397 235.725C264.336 234.188 255.923 236.015 255.923 236.015Z" fill="#2D2C2C"/>
<path d="M259.609 73.364C259.609 73.364 264.92 81.6581 266.991 83.5777C269.061 85.4974 263.236 89.7239 263.236 89.7239L252.811 91.129C252.811 91.129 252.942 81.6234 252.405 80.6442C251.868 79.6651 259.609 73.364 259.609 73.364Z" fill="white"/>
<path d="M250.547 84.2166C250.547 84.2166 252.695 88.1333 254.688 88.0558C256.681 87.9784 266.991 83.5776 267.431 82.0605C267.871 80.5433 270.846 92.9283 270.846 92.9283L245.62 137.411L239.467 133.149L242.448 107.032L244.897 92.9365L250.547 84.2166Z" fill="#468DFF"/>
<path d="M268.361 124.027C267.355 126.136 266.727 128.335 266.814 130.587C266.818 130.687 266.821 130.787 266.83 130.886C267.069 135.507 268.768 140.852 269.377 144.738C269.82 147.526 269.694 149.561 268.066 150.039C264.118 151.193 268.641 152.017 253.368 157.111C238.096 162.204 235.431 157.808 235.392 156.809C235.353 155.811 237.555 148.225 237.037 147.745C236.52 147.265 229.795 154.026 227.763 153.105C225.731 152.184 227.531 147.114 227.531 147.114C227.531 147.114 232.108 136.436 232.012 133.939C231.915 131.443 238.945 119.669 238.945 119.669L243.726 88.482C243.726 88.482 245.565 84.4103 248.037 83.8143C250.509 83.2182 252.56 84.6386 252.56 84.6386L248.423 93.7997L244.059 109.97L244.789 115.942C244.789 115.942 249.864 105.244 253.198 101.115C256.531 96.9849 263.638 87.2083 263.638 87.2083C263.638 87.2083 265.297 81.5985 264.045 79.9221C262.792 78.2407 269.269 77.989 272.031 84.882C273.495 88.5353 275.872 93.9833 277.36 99.0557C278.687 103.549 279.314 107.75 277.999 110.151C275.991 113.82 270.937 118.641 268.361 124.027Z" fill="#468DFF"/>
<path opacity="0.1" d="M277.999 110.151C275.991 113.82 270.937 118.641 268.361 124.026C267.688 121.597 266.868 119.084 266.868 119.084C266.868 119.084 263.719 102.206 273.032 97.8437C274.575 97.6942 276.118 98.1263 277.36 99.0556C278.687 103.549 279.314 107.75 277.999 110.151Z" fill="black"/>
<path d="M241.03 109.088L233.135 111.395L222.173 111.82L221.045 121.365L239.061 122.665C239.061 122.665 243.56 109.989 241.03 109.088Z" fill="#468DFF"/>
<path d="M253.905 141.178C253.905 141.178 243.342 142.934 245.753 146.119C248.164 149.304 257.521 145.956 257.521 145.956L253.905 141.178Z" fill="white"/>
<path opacity="0.1" d="M266.83 130.886C267.069 135.507 268.768 140.851 269.378 144.738C266.013 147.929 262.813 150.743 261.607 150.79C259.116 150.887 255.11 150.542 253.635 151.1C252.159 151.657 251.294 142.19 251.294 142.19C251.294 142.19 252.175 139.156 256.103 137.503C258.754 136.385 263.837 133.353 266.83 130.886Z" fill="black"/>
<path d="M272.916 94.8481C272.916 94.8481 281.348 93.5204 280.893 107.539C280.437 121.557 281.781 130.505 278.39 133.137C274.999 135.769 263.983 147.698 261.491 147.795C259 147.891 254.994 147.547 253.519 148.104C252.043 148.662 251.178 139.195 251.178 139.195C251.178 139.195 252.059 136.16 255.987 134.508C259.915 132.855 269.17 126.995 269.093 124.998C269.015 123.001 266.752 116.089 266.752 116.089C266.752 116.089 263.603 99.2102 272.916 94.8481Z" fill="#468DFF"/>
<path d="M262.644 74.6529C262.644 80.4486 257.955 85.1452 252.173 85.1452C246.392 85.1452 241.703 80.4486 241.703 74.6529C241.703 68.8573 246.392 64.1606 252.173 64.1606C257.955 64.1606 262.644 68.8573 262.644 74.6529Z" fill="white" stroke="#E6E6E6"/>
<path d="M244.787 58.898C244.522 59.1264 244.205 59.2857 243.864 59.3618C243.693 59.3923 243.517 59.3538 243.374 59.2546C243.231 59.1554 243.133 59.0036 243.102 58.8323C242.851 59.3539 242.567 59.9098 242.055 60.1774C241.543 60.445 240.75 60.2206 240.676 59.6463C240.601 60.0824 240.409 60.4896 240.12 60.8238C239.802 61.1275 239.225 61.2042 238.948 60.863C239.172 62.0919 239.033 63.3557 239.104 64.6029C239.174 65.8502 239.506 67.1725 240.447 67.9927C241.818 69.1888 243.881 68.8936 245.685 68.667C245.958 68.6096 246.241 68.6251 246.506 68.712C247.181 69.0004 247.151 69.9426 247.16 70.6783C247.215 71.9692 247.725 73.1987 248.599 74.1486C249.473 75.0985 250.655 75.7072 251.934 75.8667C252.651 75.9775 253.381 75.7988 253.966 75.3699C254.478 74.9349 254.74 74.2258 255.327 73.8989C256.282 73.3673 257.44 74.1426 258.138 74.9844C258.836 75.8263 259.524 76.8618 260.605 77.0159C262.036 77.2197 263.125 75.7591 263.659 74.4143C264.397 72.5294 264.75 70.5157 264.698 68.4918C264.647 66.468 264.191 64.475 263.359 62.6303C260.372 56.1073 250.17 55.0756 244.787 58.898Z" fill="#2F2E41"/>
<path d="M120.839 245.907H3.13864V246.536H120.839V245.907Z" fill="#2F2E41"/>
<path d="M294.407 247.165H176.707V247.794H294.407V247.165Z" fill="#2F2E41"/>
<g filter="url(#filter0_d)">
<path d="M215.499 56.3699H64.2159V147.259H215.499V56.3699Z" fill="white"/>
</g>
<path d="M70.1794 61.4018C71.0462 61.4018 71.7488 60.6978 71.7488 59.8293C71.7488 58.9609 71.0462 58.2568 70.1794 58.2568C69.3127 58.2568 68.6101 58.9609 68.6101 59.8293C68.6101 60.6978 69.3127 61.4018 70.1794 61.4018Z" fill="#FF5D01"/>
<path d="M75.829 61.4018C76.6958 61.4018 77.3984 60.6978 77.3984 59.8293C77.3984 58.9609 76.6958 58.2568 75.829 58.2568C74.9623 58.2568 74.2597 58.9609 74.2597 59.8293C74.2597 60.6978 74.9623 61.4018 75.829 61.4018Z" fill="#FF5D01"/>
<path d="M81.4786 61.4018C82.3453 61.4018 83.048 60.6978 83.048 59.8293C83.048 58.9609 82.3453 58.2568 81.4786 58.2568C80.6119 58.2568 79.9093 58.9609 79.9093 59.8293C79.9093 60.6978 80.6119 61.4018 81.4786 61.4018Z" fill="#FF5D01"/>
<path d="M215.5 63.3459H64.3426V63.975H215.5V63.3459Z" fill="#2F2E41"/>
<path d="M111.134 109.509L105.618 116.14L106.178 110.243L106.282 109.148H105.183H102.492V82.844H151.966V109.148H111.903H111.434L111.134 109.509Z" fill="white" stroke="#C2DAFF" stroke-width="2"/>
<path opacity="0.1" d="M152.412 110.148V91.5933H143.153H133.894V110.148H152.412Z" fill="#0254D7"/>
<path d="M179.039 122.986H138.975V96.6816H188.449V122.986H185.757H184.658L184.762 124.081L185.322 129.977L179.808 123.347L179.508 122.986H179.039Z" fill="white" stroke="#C2DAFF" stroke-width="2"/>
<path opacity="0.1" d="M104.077 123.833C110.317 123.833 115.376 123.338 115.376 122.728C115.376 122.118 110.317 121.624 104.077 121.624C97.8366 121.624 92.7778 122.118 92.7778 122.728C92.7778 123.338 97.8366 123.833 104.077 123.833Z" fill="black"/>
<path opacity="0.1" d="M186.624 138.767C193.731 138.767 199.492 138.204 199.492 137.509C199.492 136.815 193.731 136.251 186.624 136.251C179.517 136.251 173.755 136.815 173.755 137.509C173.755 138.204 179.517 138.767 186.624 138.767Z" fill="black"/>
<defs>
<filter id="filter0_d" x="49.2159" y="41.3699" width="181.284" height="120.889" filterUnits="userSpaceOnUse" color-interpolation-filters="sRGB">
<feFlood flood-opacity="0" result="BackgroundImageFix"/>
<feColorMatrix in="SourceAlpha" type="matrix" values="0 0 0 0 0 0 0 0 0 0 0 0 0 0 0 0 0 0 127 0"/>
<feOffset/>
<feGaussianBlur stdDeviation="7.5"/>
<feColorMatrix type="matrix" values="0 0 0 0 0 0 0 0 0 0 0 0 0 0 0 0 0 0 0.15 0"/>
<feBlend mode="normal" in2="BackgroundImageFix" result="effect1_dropShadow"/>
<feBlend mode="normal" in="SourceGraphic" in2="effect1_dropShadow" result="shape"/>
</filter>
</defs>
</svg>
