<svg width="18" height="12" viewBox="0 0 18 12" fill="none" xmlns="http://www.w3.org/2000/svg">
<rect width="18" height="12" fill="#E5E5E5"/>
<g clip-path="url(#clip0)">
<rect width="1440" height="660" transform="translate(-29 -91)" fill="white"/>
<g filter="url(#filter0_d)">
<rect x="-29" y="-91" width="76" height="660" fill="white"/>
</g>
<path fill-rule="evenodd" clip-rule="evenodd" d="M5.60236 1.2C5.51805 1.20013 5.43485 1.22047 5.3589 1.25952C5.28296 1.29857 5.21621 1.35533 5.1636 1.4256L1.73229 6H6.74988C6.89907 6 7.04215 6.06321 7.14764 6.17574C7.25313 6.28826 7.31239 6.44087 7.31239 6.6C7.31239 7.07739 7.49018 7.53523 7.80666 7.87279C8.12313 8.21036 8.55236 8.4 8.99992 8.4C9.44748 8.4 9.87672 8.21036 10.1932 7.87279C10.5097 7.53523 10.6875 7.07739 10.6875 6.6C10.6875 6.44087 10.7467 6.28826 10.8522 6.17574C10.9577 6.06321 11.1008 6 11.25 6H16.2676L12.8362 1.4256C12.7836 1.35533 12.7169 1.29857 12.6409 1.25952C12.565 1.22047 12.4818 1.20013 12.3975 1.2H5.60236ZM16.8008 7.2H11.7562C11.6271 7.87817 11.2822 8.48789 10.7799 8.92583C10.2775 9.36377 9.6487 9.60301 8.99992 9.60301C8.35115 9.60301 7.72232 9.36377 7.22 8.92583C6.71767 8.48789 6.37273 7.87817 6.24362 7.2H1.19903L1.55903 10.2744C1.57606 10.4197 1.6423 10.5533 1.74529 10.6501C1.84827 10.747 1.9809 10.8003 2.11817 10.8H15.8817C16.0188 10.8 16.1511 10.7465 16.2539 10.6497C16.3566 10.553 16.4227 10.4195 16.4397 10.2744L16.7997 7.2H16.8008ZM4.28496 0.6756C4.44314 0.464688 4.64378 0.294448 4.87203 0.177496C5.10027 0.060545 5.35027 -0.000119135 5.60349 1.75649e-07H12.3964C12.6496 -0.000119135 12.8996 0.060545 13.1278 0.177496C13.3561 0.294448 13.5567 0.464688 13.7149 0.6756L17.8775 6.2256C17.9242 6.28822 17.9588 6.36019 17.9791 6.43726C17.9993 6.51434 18.005 6.59497 17.9956 6.6744L17.5568 10.4232C17.5058 10.8587 17.3074 11.2593 16.9989 11.5496C16.6904 11.84 16.2931 12.0002 15.8817 12H2.11817C1.70674 12.0002 1.30942 11.84 1.00093 11.5496C0.692439 11.2593 0.494031 10.8587 0.443013 10.4232L0.00425493 6.6744C-0.00496603 6.59489 0.00083534 6.51421 0.0213168 6.43713C0.0417983 6.36005 0.076545 6.28813 0.123507 6.2256L4.28609 0.6756H4.28496Z" fill="#4D4D4D"/>
</g>
<defs>
<filter id="filter0_d" x="-34" y="-96" width="86" height="670" filterUnits="userSpaceOnUse" color-interpolation-filters="sRGB">
<feFlood flood-opacity="0" result="BackgroundImageFix"/>
<feColorMatrix in="SourceAlpha" type="matrix" values="0 0 0 0 0 0 0 0 0 0 0 0 0 0 0 0 0 0 127 0"/>
<feOffset/>
<feGaussianBlur stdDeviation="2.5"/>
<feColorMatrix type="matrix" values="0 0 0 0 0 0 0 0 0 0 0 0 0 0 0 0 0 0 0.15 0"/>
<feBlend mode="overlay" in2="BackgroundImageFix" result="effect1_dropShadow"/>
<feBlend mode="normal" in="SourceGraphic" in2="effect1_dropShadow" result="shape"/>
</filter>
<clipPath id="clip0">
<rect width="1440" height="660" fill="white" transform="translate(-29 -91)"/>
</clipPath>
</defs>
</svg>
