<svg width="18" height="12" viewBox="0 0 18 12" fill="none" xmlns="http://www.w3.org/2000/svg">
<rect width="18" height="12" fill="#E5E5E5"/>
<g clip-path="url(#clip0)">
<rect width="1440" height="660" transform="translate(-29 -91)" fill="white"/>
<g filter="url(#filter0_d)">
<rect x="-29" y="-91" width="76" height="660" fill="white"/>
</g>
<path d="M5.60241 1.2C5.5181 1.20013 5.43489 1.22047 5.35895 1.25952C5.283 1.29857 5.21625 1.35533 5.16365 1.4256L1.7323 6H6.74994C6.89913 6 7.0422 6.06321 7.1477 6.17574C7.25319 6.28826 7.31245 6.44087 7.31245 6.6C7.31245 7.07739 7.49025 7.53523 7.80672 7.87279C8.1232 8.21036 8.55243 8.4 9 8.4C9.44757 8.4 9.8768 8.21036 10.1933 7.87279C10.5098 7.53523 10.6875 7.07739 10.6875 6.6C10.6875 6.44087 10.7468 6.28826 10.8523 6.17574C10.9578 6.06321 11.1009 6 11.2501 6H16.2677L12.8364 1.4256C12.7837 1.35533 12.717 1.29857 12.6411 1.25952C12.5651 1.22047 12.4819 1.20013 12.3976 1.2H5.60241ZM4.28612 0.6756C4.44406 0.465004 4.64435 0.294954 4.87218 0.178016C5.10001 0.0610776 5.34957 0.000240515 5.60241 0H12.3976C12.6504 0.000240515 12.9 0.0610776 13.1278 0.178016C13.3557 0.294954 13.5559 0.465004 13.7139 0.6756L17.8765 6.2256C17.9235 6.28813 17.9582 6.36005 17.9787 6.43713C17.9992 6.51421 18.005 6.59489 17.9957 6.6744L17.557 10.4232C17.506 10.8587 17.3076 11.2593 16.9991 11.5496C16.6906 11.84 16.2932 12.0002 15.8818 12H2.11819C1.70675 12.0002 1.30943 11.84 1.00094 11.5496C0.692445 11.2593 0.494035 10.8587 0.443017 10.4232L0.00425497 6.6744C-0.00496607 6.59489 0.000835349 6.51421 0.021317 6.43713C0.0417986 6.36005 0.0765456 6.28813 0.123508 6.2256L4.28612 0.6756Z" fill="#0254D7"/>
</g>
<defs>
<filter id="filter0_d" x="-34" y="-96" width="86" height="670" filterUnits="userSpaceOnUse" color-interpolation-filters="sRGB">
<feFlood flood-opacity="0" result="BackgroundImageFix"/>
<feColorMatrix in="SourceAlpha" type="matrix" values="0 0 0 0 0 0 0 0 0 0 0 0 0 0 0 0 0 0 127 0"/>
<feOffset/>
<feGaussianBlur stdDeviation="2.5"/>
<feColorMatrix type="matrix" values="0 0 0 0 0 0 0 0 0 0 0 0 0 0 0 0 0 0 0.15 0"/>
<feBlend mode="overlay" in2="BackgroundImageFix" result="effect1_dropShadow"/>
<feBlend mode="normal" in="SourceGraphic" in2="effect1_dropShadow" result="shape"/>
</filter>
<clipPath id="clip0">
<rect width="1440" height="660" fill="white" transform="translate(-29 -91)"/>
</clipPath>
</defs>
</svg>
