<svg width="15" height="14" viewBox="0 0 15 14" fill="none" xmlns="http://www.w3.org/2000/svg">
<rect width="15" height="14" fill="#E5E5E5"/>
<g clip-path="url(#clip0)">
<rect width="1440" height="760" transform="translate(-97 -254)" fill="white"/>
<rect x="-20" y="-198" width="1363" height="704" fill="#FAFAFA"/>
<rect x="-20" y="-198" width="180" height="704" fill="white"/>
<path d="M11.1544 1.7166C10.9919 1.50939 10.7301 1.5114 10.5695 1.72111C10.409 1.93081 10.4106 2.2688 10.573 2.47601L13.6237 6.36677L6.31358 6.36677C6.08516 6.36677 5.9 6.60577 5.9 6.90058C5.9 7.1954 6.08516 7.43439 6.31358 7.43439L13.6227 7.43439L10.573 11.3239C10.4106 11.5312 10.409 11.8691 10.5695 12.0788C10.7301 12.2886 10.9919 12.2906 11.1544 12.0834L14.8464 7.37461C15.0512 7.1134 15.0512 6.68656 14.8464 6.42535L11.1544 1.7166Z" fill="#0254D7"/>
<path d="M8.7 3.84979V2.3248C8.7 1.92035 8.5525 1.53246 8.28995 1.24646C8.0274 0.960473 7.6713 0.799805 7.3 0.799805H2.4C2.0287 0.799805 1.6726 0.960473 1.41005 1.24646C1.1475 1.53246 1 1.92035 1 2.3248V11.4748C1 11.8792 1.1475 12.2671 1.41005 12.5531C1.6726 12.8391 2.0287 12.9998 2.4 12.9998H7.3C7.6713 12.9998 8.0274 12.8391 8.28995 12.5531C8.5525 12.2671 8.7 11.8792 8.7 11.4748V9.94977" stroke="#0254D7" stroke-width="1.5" stroke-linecap="round" stroke-linejoin="round"/>
</g>
<defs>
<clipPath id="clip0">
<rect width="1440" height="760" fill="white" transform="translate(-97 -254)"/>
</clipPath>
</defs>
</svg>
