<svg width="229" height="76" viewBox="0 0 229 76" fill="none" xmlns="http://www.w3.org/2000/svg">
<path d="M104.531 36.2096C107.811 36.2096 110.691 35.2896 113.131 33.4896C115.571 31.6896 117.291 29.1696 118.211 25.8896H111.851C111.211 27.3696 110.251 28.4896 108.931 29.2496C107.611 30.0096 106.131 30.4096 104.531 30.4096C102.131 30.4096 100.131 29.5696 98.5708 27.9296C97.0108 26.2896 96.2108 24.1696 96.2108 21.6496C96.2108 19.1296 97.0108 17.0496 98.5708 15.3696C100.131 13.7296 102.131 12.8896 104.531 12.8896C106.171 12.8896 107.651 13.2896 108.971 14.0896C110.291 14.8896 111.251 16.0096 111.851 17.4496H118.211C117.291 14.1696 115.571 11.6096 113.131 9.80964C110.691 8.00964 107.811 7.12964 104.531 7.12964C100.291 7.12964 96.8108 8.52964 94.1308 11.2896C91.4108 14.0496 90.0508 17.5296 90.0508 21.6496C90.0508 25.8096 91.4108 29.2896 94.1308 32.0496C96.8108 34.8096 100.291 36.2096 104.531 36.2096Z" fill="#2D2C2C"/>
<path d="M129.863 36.1696C133.103 36.1696 135.783 35.1296 137.903 33.0096C140.023 30.8896 141.063 28.2896 141.063 25.1296C141.063 21.9696 140.023 19.3296 137.903 17.2096C135.783 15.0896 133.103 14.0496 129.863 14.0496C126.623 14.0496 123.943 15.0896 121.823 17.2096C119.703 19.3296 118.623 21.9696 118.623 25.1296C118.623 28.2896 119.663 30.8896 121.783 33.0096C123.903 35.1296 126.583 36.1696 129.863 36.1696ZM126.063 29.0496C125.063 28.0096 124.543 26.6896 124.543 25.1296C124.543 23.5296 125.063 22.2096 126.063 21.1696C127.063 20.1296 128.303 19.6096 129.863 19.6096C131.423 19.6096 132.663 20.1296 133.663 21.1696C134.663 22.2096 135.143 23.5296 135.143 25.1296C135.143 26.6896 134.663 28.0096 133.663 29.0496C132.663 30.0896 131.423 30.6096 129.863 30.6096C128.303 30.6096 127.063 30.0896 126.063 29.0496Z" fill="#2D2C2C"/>
<path d="M156.217 44.8496C158.417 44.8496 160.177 44.3296 161.417 43.2496C162.657 42.1696 163.257 40.5296 163.257 38.3296V14.5696H157.457V16.7296H157.017C156.537 16.2096 156.097 15.8096 155.697 15.4496C155.257 15.1296 154.657 14.8096 153.817 14.4896C152.977 14.2096 152.057 14.0496 151.017 14.0496C148.297 14.0496 146.017 15.1296 144.217 17.2496C142.377 19.3696 141.457 22.0096 141.457 25.0896C141.457 28.2496 142.417 30.8496 144.337 32.9696C146.217 35.0896 148.537 36.1696 151.297 36.1696C153.737 36.1696 155.617 35.3296 156.977 33.6896H157.417V38.0496C157.417 39.0096 156.977 39.4896 156.097 39.4896H146.697V44.8496H156.217ZM152.457 30.6496C151.057 30.6496 149.857 30.1296 148.897 29.0896C147.897 28.0496 147.417 26.7296 147.417 25.0896C147.417 23.4896 147.897 22.1696 148.897 21.1296C149.857 20.1296 151.057 19.6096 152.457 19.6096C153.897 19.6096 155.097 20.0896 156.057 21.0896C157.017 22.0896 157.497 23.4496 157.497 25.0896C157.497 26.6496 157.017 27.9696 156.097 29.0496C155.137 30.1296 153.937 30.6496 152.457 30.6496Z" fill="#2D2C2C"/>
<path d="M171.092 35.6496V23.4096C171.092 22.3296 171.452 21.4496 172.132 20.7296C172.812 20.0496 173.652 19.6896 174.692 19.6896C175.692 19.6896 176.532 20.0496 177.212 20.7296C177.852 21.4096 178.172 22.2896 178.172 23.3696V35.6496H184.012V21.4896C184.012 19.3696 183.332 17.6096 181.972 16.1696C180.572 14.7696 178.812 14.0496 176.612 14.0496C174.332 14.0496 172.652 14.8496 171.492 16.4896H171.092V14.5696H165.252V35.6496H171.092Z" fill="#2D2C2C"/>
<path d="M196.256 36.1696C199.496 36.1696 202.176 35.1296 204.296 33.0096C206.416 30.8896 207.456 28.2896 207.456 25.1296C207.456 21.9696 206.416 19.3296 204.296 17.2096C202.176 15.0896 199.496 14.0496 196.256 14.0496C193.016 14.0496 190.336 15.0896 188.216 17.2096C186.096 19.3296 185.016 21.9696 185.016 25.1296C185.016 28.2896 186.056 30.8896 188.176 33.0096C190.296 35.1296 192.976 36.1696 196.256 36.1696ZM192.456 29.0496C191.456 28.0096 190.936 26.6896 190.936 25.1296C190.936 23.5296 191.456 22.2096 192.456 21.1696C193.456 20.1296 194.696 19.6096 196.256 19.6096C197.816 19.6096 199.056 20.1296 200.056 21.1696C201.056 22.2096 201.536 23.5296 201.536 25.1296C201.536 26.6896 201.056 28.0096 200.056 29.0496C199.056 30.0896 197.816 30.6096 196.256 30.6096C194.696 30.6096 193.456 30.0896 192.456 29.0496Z" fill="#2D2C2C"/>
<path d="M91.9509 69.6497H105.356V67.0947H94.7859V45.1497H91.9509V69.6497Z" fill="#FF5D01"/>
<path d="M110.507 48.1597C111.697 48.1597 112.537 47.2847 112.537 46.1297C112.537 45.0097 111.697 44.1347 110.507 44.1347C109.352 44.1347 108.512 45.0097 108.512 46.1297C108.512 47.2847 109.352 48.1597 110.507 48.1597ZM109.142 69.6497H111.907V51.4497H105.712V53.7947H109.142V69.6497Z" fill="#FF5D01"/>
<path d="M121.417 69.6497H125.057L131.812 51.4497H128.767L123.307 67.0597H123.097L117.602 51.4497H114.627L121.417 69.6497Z" fill="#FF5D01"/>
<path d="M141.158 70.1047C145.358 70.1047 148.368 67.6897 149.383 64.2947L146.688 63.6647C146.093 66.1847 143.748 67.6547 141.193 67.6547C137.413 67.6547 135.033 65.3797 134.998 61.3197H149.628V60.3047C149.628 54.8447 146.478 50.9947 140.983 50.9947C136.153 50.9947 132.163 54.8097 132.163 60.6197C132.163 66.2197 135.628 70.1047 141.158 70.1047ZM135.068 59.0797C135.278 55.6497 138.008 53.4797 140.983 53.4797C143.993 53.4797 146.618 55.2997 146.793 59.0797H135.068Z" fill="#FF5D01"/>
<path d="M163.405 70.1047C168.865 70.1047 173.24 66.8847 174.78 62.1597H171.63C170.405 65.3797 167.22 67.4447 163.44 67.4447C158.015 67.4447 153.955 63.2097 153.955 57.3997C153.955 51.6597 158.015 47.3547 163.44 47.3547C167.22 47.3547 170.335 49.4547 171.63 52.6397H174.78C173.17 48.0197 168.9 44.6947 163.44 44.6947C156.335 44.6947 151.015 50.1897 151.015 57.3997C151.015 64.6797 156.3 70.1047 163.405 70.1047Z" fill="#FF5D01"/>
<path d="M177.419 69.6497H180.184V58.5897C180.184 55.6497 182.564 53.5847 185.364 53.5847C187.919 53.5847 190.124 55.4747 190.124 58.3797V69.6497H192.889V58.2047C192.889 54.1797 190.264 50.9947 186.029 50.9947C183.194 50.9947 181.164 52.4647 180.394 54.1097H180.184V43.3997H177.419V69.6497Z" fill="#FF5D01"/>
<path d="M204.24 70.1047C208.195 70.1047 209.875 67.5147 210.33 66.7797H210.54V66.9547C210.575 68.5297 211.695 69.6497 213.2 69.6497H214.985V67.1997H214.145C213.585 67.1997 213.235 66.9197 213.235 66.3597V51.4497H210.435V54.3897H210.225C209.7 53.4447 207.81 50.9947 204.03 50.9947C198.85 50.9947 195.35 54.9847 195.35 60.5847C195.35 66.1497 199.025 70.1047 204.24 70.1047ZM204.38 67.6197C200.88 67.6197 198.185 64.8547 198.185 60.6197C198.185 56.4547 200.775 53.5147 204.345 53.5147C207.74 53.5147 210.54 56.1047 210.54 60.6197C210.54 64.4347 208.195 67.6197 204.38 67.6197Z" fill="#FF5D01"/>
<path d="M225.341 69.6497H227.931V67.2347H225.306C223.381 67.2347 222.576 66.3947 222.576 64.4347V53.7947H228.176V51.4497H222.576V46.1647H219.986V51.4497H216.381V53.7947H219.811V64.4697C219.811 68.1447 222.016 69.6497 225.341 69.6497Z" fill="#FF5D01"/>
<path d="M0.950928 13.4897C0.950928 6.12266 6.92393 0.149658 14.2909 0.149658H62.6109C69.9779 0.149658 75.9509 6.12266 75.9509 13.4897V61.8097C75.9509 69.1767 69.9779 75.1497 62.6109 75.1497H14.2909C6.92393 75.1497 0.950928 69.1767 0.950928 61.8097V13.4897Z" fill="url(#paint0_linear)"/>
<path d="M58.4509 37.5872C58.4592 40.3725 57.7154 43.1201 56.2803 45.6063C54.5786 48.5854 51.9626 51.0913 48.7253 52.843C45.488 54.5948 41.7573 55.5233 37.9509 55.5246C34.9211 55.5315 31.9304 54.9423 29.1991 53.8027C28.9286 53.6898 28.6322 53.6512 28.343 53.6996L19.6383 55.1581C18.5911 55.3336 17.6981 54.3953 17.9251 53.358L19.4974 46.1737C19.5773 45.8086 19.5154 45.4281 19.3398 45.0982C18.0892 42.7482 17.4433 40.184 17.451 37.5872C17.4525 34.2566 18.5136 30.9922 20.5157 28.1596C22.5177 25.3269 25.3815 23.0379 28.7863 21.549C31.6276 20.2932 34.7677 19.6425 37.9509 19.6497H39.1568C44.1837 19.8924 48.9318 21.7489 52.4917 24.8639C56.0517 27.9789 58.1735 32.1334 58.4509 36.532V37.5872Z" fill="white"/>
<defs>
<linearGradient id="paint0_linear" x1="-11.0491" y1="5.12022" x2="41.9839" y2="58.1532" gradientUnits="userSpaceOnUse">
<stop stop-color="#FFC700"/>
<stop offset="1" stop-color="#FF5D01"/>
</linearGradient>
</defs>
</svg>
