<svg width="18" height="15" viewBox="0 0 18 15" fill="none" xmlns="http://www.w3.org/2000/svg">
<rect width="18" height="15" fill="#E5E5E5"/>
<g clip-path="url(#clip0)">
<rect width="1440" height="760" transform="translate(-30 -140)" fill="white"/>
<g filter="url(#filter0_d)">
<rect x="-30" y="-140" width="76" height="660" fill="white"/>
</g>
<path d="M7.875 14.125C7.875 14.125 6.75 14.125 6.75 13C6.75 11.875 7.875 8.5 12.375 8.5C16.875 8.5 18 11.875 18 13C18 14.125 16.875 14.125 16.875 14.125H7.875ZM12.375 7.375C13.2701 7.375 14.1286 7.01942 14.7615 6.38649C15.3944 5.75355 15.75 4.89511 15.75 4C15.75 3.10489 15.3944 2.24645 14.7615 1.61351C14.1286 0.980579 13.2701 0.625 12.375 0.625C11.4799 0.625 10.6214 0.980579 9.98851 1.61351C9.35558 2.24645 9 3.10489 9 4C9 4.89511 9.35558 5.75355 9.98851 6.38649C10.6214 7.01942 11.4799 7.375 12.375 7.375Z" fill="#0254D7"/>
<path fill-rule="evenodd" clip-rule="evenodd" d="M5.868 14.125C5.70122 13.7738 5.61805 13.3887 5.625 13C5.625 11.4756 6.39 9.90624 7.803 8.81499C7.09773 8.59768 6.36294 8.49141 5.625 8.49999C1.125 8.49999 0 11.875 0 13C0 14.125 1.125 14.125 1.125 14.125H5.868Z" fill="#0254D7"/>
<path d="M5.0625 7.375C5.80842 7.375 6.52379 7.07868 7.05124 6.55124C7.57868 6.02379 7.875 5.30842 7.875 4.5625C7.875 3.81658 7.57868 3.10121 7.05124 2.57376C6.52379 2.04632 5.80842 1.75 5.0625 1.75C4.31658 1.75 3.60121 2.04632 3.07376 2.57376C2.54632 3.10121 2.25 3.81658 2.25 4.5625C2.25 5.30842 2.54632 6.02379 3.07376 6.55124C3.60121 7.07868 4.31658 7.375 5.0625 7.375Z" fill="#0254D7"/>
</g>
<defs>
<filter id="filter0_d" x="-35" y="-145" width="86" height="670" filterUnits="userSpaceOnUse" color-interpolation-filters="sRGB">
<feFlood flood-opacity="0" result="BackgroundImageFix"/>
<feColorMatrix in="SourceAlpha" type="matrix" values="0 0 0 0 0 0 0 0 0 0 0 0 0 0 0 0 0 0 127 0"/>
<feOffset/>
<feGaussianBlur stdDeviation="2.5"/>
<feColorMatrix type="matrix" values="0 0 0 0 0 0 0 0 0 0 0 0 0 0 0 0 0 0 0.15 0"/>
<feBlend mode="overlay" in2="BackgroundImageFix" result="effect1_dropShadow"/>
<feBlend mode="normal" in="SourceGraphic" in2="effect1_dropShadow" result="shape"/>
</filter>
<clipPath id="clip0">
<rect width="1440" height="760" fill="white" transform="translate(-30 -140)"/>
</clipPath>
</defs>
</svg>
