<svg width="14" height="14" viewBox="0 0 14 14" fill="none" xmlns="http://www.w3.org/2000/svg">
<rect width="14" height="14" fill="#E5E5E5"/>
<g clip-path="url(#clip0)">
<rect width="1440" height="760" transform="translate(-98 -337)" fill="white"/>
<rect x="-21" y="-281" width="1363" height="704" fill="#FAFAFA"/>
<rect x="-21" y="-281" width="180" height="704" fill="white"/>
<path d="M0.896235 0.153759C0.691212 -0.0512502 0.3588 -0.0512536 0.153773 0.153752C-0.0512546 0.358757 -0.051258 0.69114 0.153765 0.89615L1.69287 2.43515C0.637795 3.66061 0 5.25553 0 6.9994C0 8.13349 0.270456 9.22939 0.780228 10.2137L0.0328636 12.8894C-0.0101542 13.0433 -0.010175 13.2062 0.032834 13.3602C0.162807 13.8256 0.645486 14.0975 1.11093 13.9675L3.789 13.2205C4.77248 13.729 5.8672 13.9988 7 13.9988C8.74397 13.9988 10.339 13.3611 11.5645 12.3062L13.1036 13.8451C13.3086 14.0501 13.641 14.0502 13.8461 13.8451C14.0511 13.6401 14.0511 13.3078 13.8461 13.1027L0.896235 0.153759ZM10.8196 11.5613C9.78613 12.4274 8.45397 12.9489 7 12.9489C5.97253 12.9489 4.98404 12.6886 4.10696 12.1996L3.91829 12.0944L1.12767 12.8729L1.90657 10.0842L1.80112 9.89537C1.31094 9.0176 1.05 8.02804 1.05 6.9994C1.05 5.54552 1.57155 4.21343 2.43778 3.18001L4.54071 5.28281C4.34167 5.35743 4.2 5.54943 4.2 5.77451C4.2 6.06443 4.43505 6.29946 4.725 6.29946H5.55744L6.95741 7.69934H4.725L4.65376 7.70413C4.39751 7.7389 4.2 7.95853 4.2 8.2243C4.2 8.51422 4.43505 8.74925 4.725 8.74925H7.87378L7.94502 8.74446C7.96148 8.74223 7.9777 8.73923 7.99364 8.73551L10.8196 11.5613Z" fill="#4D4D4D"/>
<path d="M9.27814 5.24955H7.47729L8.52727 6.29946H9.27814L9.34938 6.29467C9.60563 6.25991 9.80314 6.04027 9.80314 5.77451C9.80314 5.48458 9.56809 5.24955 9.27814 5.24955Z" fill="#4D4D4D"/>
<path d="M12.95 6.9994C12.95 8.07045 12.667 9.0754 12.1716 9.94354L12.9371 10.709C13.6106 9.63353 14 8.36193 14 6.9994C14 3.13374 10.866 6.1531e-06 7 6.1531e-06C5.6374 6.1531e-06 4.36574 0.389298 3.29018 1.06272L4.05571 1.82821C4.9239 1.33291 5.9289 1.04992 7 1.04992C10.2861 1.04992 12.95 3.71359 12.95 6.9994Z" fill="#4D4D4D"/>
</g>
<defs>
<clipPath id="clip0">
<rect width="1440" height="760" fill="white" transform="translate(-98 -337)"/>
</clipPath>
</defs>
</svg>
