<svg width="14" height="17" viewBox="0 0 14 17" fill="none" xmlns="http://www.w3.org/2000/svg">
<rect width="14" height="17" fill="#E5E5E5"/>
<g clip-path="url(#clip0)">
<rect width="1440" height="660" transform="translate(-90 -89)" fill="white"/>
<path d="M11.9 9.91667C13.0598 9.91667 14 10.8681 14 12.0417V12.5479C14 15.0821 11.0526 17 7 17C2.94737 17 0 15.1819 0 12.5479V12.0417C0 10.8681 0.940202 9.91667 2.1 9.91667H11.9ZM11.9 10.9792H2.1C1.55421 10.9792 1.10569 11.4005 1.05481 11.9393L1.05 12.0417V12.5479C1.05 14.4422 3.42215 15.9375 7 15.9375C10.4482 15.9375 12.8483 14.4465 12.9468 12.6621L12.95 12.5479V12.0417C12.95 11.4894 12.5336 11.0355 12.0011 10.984L11.9 10.9792ZM7 0C9.3196 0 11.2 1.90279 11.2 4.25C11.2 6.59721 9.3196 8.5 7 8.5C4.6804 8.5 2.8 6.59721 2.8 4.25C2.8 1.90279 4.6804 0 7 0ZM7 1.0625C5.2603 1.0625 3.85 2.48959 3.85 4.25C3.85 6.01041 5.2603 7.4375 7 7.4375C8.7397 7.4375 10.15 6.01041 10.15 4.25C10.15 2.48959 8.7397 1.0625 7 1.0625Z" fill="#4D4D4D"/>
</g>
<defs>
<clipPath id="clip0">
<rect width="1440" height="660" fill="white" transform="translate(-90 -89)"/>
</clipPath>
</defs>
</svg>
