<svg width="17" height="19" viewBox="0 0 17 19" fill="none" xmlns="http://www.w3.org/2000/svg">
<path d="M14.45 11.0833C15.8583 11.0833 17 12.1467 17 13.4583V14.0241C17 16.8565 13.4211 19 8.5 19C3.57895 19 0 16.968 0 14.0241V13.4583C0 12.1467 1.14167 11.0833 2.55 11.0833H14.45ZM14.45 12.2708H2.55C1.88726 12.2708 1.34262 12.7418 1.28084 13.344L1.275 13.4583V14.0241C1.275 16.1413 4.15547 17.8125 8.5 17.8125C12.6871 17.8125 15.6016 16.1461 15.7212 14.1518L15.725 14.0241V13.4583C15.725 12.8411 15.2193 12.3338 14.5728 12.2763L14.45 12.2708ZM8.5 0C11.3167 0 13.6 2.12665 13.6 4.75C13.6 7.37335 11.3167 9.5 8.5 9.5C5.68335 9.5 3.4 7.37335 3.4 4.75C3.4 2.12665 5.68335 0 8.5 0ZM8.5 1.1875C6.38751 1.1875 4.675 2.78249 4.675 4.75C4.675 6.71751 6.38751 8.3125 8.5 8.3125C10.6125 8.3125 12.325 6.71751 12.325 4.75C12.325 2.78249 10.6125 1.1875 8.5 1.1875Z" fill="#4D4D4D"/>
</svg>
