<svg width="18" height="18" viewBox="0 0 18 18" fill="none" xmlns="http://www.w3.org/2000/svg">
<rect width="18" height="18" fill="#E5E5E5"/>
<g clip-path="url(#clip0)">
<rect width="1440" height="962" transform="translate(-29 -243)" fill="white"/>
<g filter="url(#filter0_d)">
<rect x="-29" y="-243" width="76" height="962" fill="white"/>
</g>
<g clip-path="url(#clip1)">
<path d="M10.4546 0H4.5C3.90326 0 3.33097 0.237053 2.90901 0.65901C2.48705 1.08097 2.25 1.65326 2.25 2.25V15.75C2.25 16.3467 2.48705 16.919 2.90901 17.341C3.33097 17.7629 3.90326 18 4.5 18H13.5C14.0967 18 14.669 17.7629 15.091 17.341C15.5129 16.919 15.75 16.3467 15.75 15.75V5.29537C15.7499 4.99703 15.6314 4.71093 15.4204 4.5L11.25 0.329625C11.0391 0.118632 10.753 6.37171e-05 10.4546 0V0ZM10.6875 3.9375V1.6875L14.0625 5.0625H11.8125C11.5141 5.0625 11.228 4.94397 11.017 4.733C10.806 4.52202 10.6875 4.23587 10.6875 3.9375ZM11.25 15.1875V8.4375C11.25 8.28832 11.3093 8.14524 11.4148 8.03975C11.5202 7.93426 11.6633 7.875 11.8125 7.875H12.9375C13.0867 7.875 13.2298 7.93426 13.3352 8.03975C13.4407 8.14524 13.5 8.28832 13.5 8.4375V15.1875C13.5 15.3367 13.4407 15.4798 13.3352 15.5852C13.2298 15.6907 13.0867 15.75 12.9375 15.75H11.8125C11.6633 15.75 11.5202 15.6907 11.4148 15.5852C11.3093 15.4798 11.25 15.3367 11.25 15.1875ZM8.4375 15.75C8.28832 15.75 8.14524 15.6907 8.03975 15.5852C7.93426 15.4798 7.875 15.3367 7.875 15.1875V10.6875C7.875 10.5383 7.93426 10.3952 8.03975 10.2898C8.14524 10.1843 8.28832 10.125 8.4375 10.125H9.5625C9.71168 10.125 9.85476 10.1843 9.96025 10.2898C10.0657 10.3952 10.125 10.5383 10.125 10.6875V15.1875C10.125 15.3367 10.0657 15.4798 9.96025 15.5852C9.85476 15.6907 9.71168 15.75 9.5625 15.75H8.4375ZM5.0625 15.75C4.91332 15.75 4.77024 15.6907 4.66475 15.5852C4.55926 15.4798 4.5 15.3367 4.5 15.1875V12.9375C4.5 12.7883 4.55926 12.6452 4.66475 12.5398C4.77024 12.4343 4.91332 12.375 5.0625 12.375H6.1875C6.33668 12.375 6.47976 12.4343 6.58525 12.5398C6.69074 12.6452 6.75 12.7883 6.75 12.9375V15.1875C6.75 15.3367 6.69074 15.4798 6.58525 15.5852C6.47976 15.6907 6.33668 15.75 6.1875 15.75H5.0625Z" fill="#0254D7"/>
</g>
</g>
<defs>
<filter id="filter0_d" x="-34" y="-248" width="86" height="972" filterUnits="userSpaceOnUse" color-interpolation-filters="sRGB">
<feFlood flood-opacity="0" result="BackgroundImageFix"/>
<feColorMatrix in="SourceAlpha" type="matrix" values="0 0 0 0 0 0 0 0 0 0 0 0 0 0 0 0 0 0 127 0"/>
<feOffset/>
<feGaussianBlur stdDeviation="2.5"/>
<feColorMatrix type="matrix" values="0 0 0 0 0 0 0 0 0 0 0 0 0 0 0 0 0 0 0.15 0"/>
<feBlend mode="overlay" in2="BackgroundImageFix" result="effect1_dropShadow"/>
<feBlend mode="normal" in="SourceGraphic" in2="effect1_dropShadow" result="shape"/>
</filter>
<clipPath id="clip0">
<rect width="1440" height="962" fill="white" transform="translate(-29 -243)"/>
</clipPath>
<clipPath id="clip1">
<rect width="18" height="18" fill="white"/>
</clipPath>
</defs>
</svg>
