<svg width="14" height="18" viewBox="0 0 14 18" fill="none" xmlns="http://www.w3.org/2000/svg">
<path d="M8.45463 0H2.5C1.90326 0 1.33097 0.237053 0.90901 0.65901C0.487053 1.08097 0.25 1.65326 0.25 2.25V15.75C0.25 16.3467 0.487053 16.919 0.90901 17.341C1.33097 17.7629 1.90326 18 2.5 18H11.5C12.0967 18 12.669 17.7629 13.091 17.341C13.5129 16.919 13.75 16.3467 13.75 15.75V5.29537C13.7499 4.99703 13.6314 4.71093 13.4204 4.5L9.25 0.329625C9.03907 0.118632 8.75297 6.37171e-05 8.45463 0V0ZM8.6875 3.9375V1.6875L12.0625 5.0625H9.8125C9.51413 5.0625 9.22798 4.94397 9.017 4.733C8.80603 4.52202 8.6875 4.23587 8.6875 3.9375ZM9.25 15.1875V8.4375C9.25 8.28832 9.30926 8.14524 9.41475 8.03975C9.52024 7.93426 9.66332 7.875 9.8125 7.875H10.9375C11.0867 7.875 11.2298 7.93426 11.3352 8.03975C11.4407 8.14524 11.5 8.28832 11.5 8.4375V15.1875C11.5 15.3367 11.4407 15.4798 11.3352 15.5852C11.2298 15.6907 11.0867 15.75 10.9375 15.75H9.8125C9.66332 15.75 9.52024 15.6907 9.41475 15.5852C9.30926 15.4798 9.25 15.3367 9.25 15.1875ZM6.4375 15.75C6.28832 15.75 6.14524 15.6907 6.03975 15.5852C5.93426 15.4798 5.875 15.3367 5.875 15.1875V10.6875C5.875 10.5383 5.93426 10.3952 6.03975 10.2898C6.14524 10.1843 6.28832 10.125 6.4375 10.125H7.5625C7.71168 10.125 7.85476 10.1843 7.96025 10.2898C8.06574 10.3952 8.125 10.5383 8.125 10.6875V15.1875C8.125 15.3367 8.06574 15.4798 7.96025 15.5852C7.85476 15.6907 7.71168 15.75 7.5625 15.75H6.4375ZM3.0625 15.75C2.91332 15.75 2.77024 15.6907 2.66475 15.5852C2.55926 15.4798 2.5 15.3367 2.5 15.1875V12.9375C2.5 12.7883 2.55926 12.6452 2.66475 12.5398C2.77024 12.4343 2.91332 12.375 3.0625 12.375H4.1875C4.33668 12.375 4.47976 12.4343 4.58525 12.5398C4.69074 12.6452 4.75 12.7883 4.75 12.9375V15.1875C4.75 15.3367 4.69074 15.4798 4.58525 15.5852C4.47976 15.6907 4.33668 15.75 4.1875 15.75H3.0625Z" fill="#0254D7"/>
</svg>
