<svg width="14" height="14" viewBox="0 0 14 14" fill="none" xmlns="http://www.w3.org/2000/svg">
<rect width="14" height="14" fill="#E5E5E5"/>
<rect width="1440" height="660" transform="translate(-274 -83)" fill="white"/>
<rect x="-27" y="-27" width="1193" height="604" fill="#FAFAFA"/>
<rect x="-17" y="-16" width="1174" height="114" fill="white"/>
<path d="M12.9184 2.1587L12.9219 2.246L12.9231 2.33333V10.3026C12.9231 11.7498 11.7498 12.9231 10.3026 12.9231H2.33333C2.27478 12.9231 2.21661 12.9214 2.15887 12.9182C2.5723 13.5683 3.29984 14 4.12821 14H10.3026C12.3446 14 14 12.3446 14 10.3026V4.12821C14 3.30015 13.5687 2.57284 12.9184 2.1587ZM2.33333 0C1.04467 0 0 1.04467 0 2.33333V9.87179C0 11.1605 1.04467 12.2051 2.33333 12.2051H9.87179C11.1605 12.2051 12.2051 11.1605 12.2051 9.87179V2.33333C12.2051 1.04467 11.1605 0 9.87179 0H2.33333ZM1.07692 3.94872H11.1282V9.87179C11.1282 10.5657 10.5657 11.1282 9.87179 11.1282H2.33333C1.63944 11.1282 1.07692 10.5657 1.07692 9.87179V3.94872ZM2.33333 1.07692H9.87179C10.5657 1.07692 11.1282 1.63944 11.1282 2.33333V2.87179H1.07692V2.33333C1.07692 1.63944 1.63944 1.07692 2.33333 1.07692Z" fill="#4D4D4D"/>
</svg>
