<svg width="18" height="18" viewBox="0 0 18 18" fill="none" xmlns="http://www.w3.org/2000/svg">
<rect width="18" height="18" fill="#E5E5E5"/>
<g clip-path="url(#clip0)">
<rect width="1440" height="660" transform="translate(-29 -242)" fill="white"/>
<g filter="url(#filter0_d)">
<rect x="-29" y="-242" width="76" height="660" fill="white"/>
</g>
<path fill-rule="evenodd" clip-rule="evenodd" d="M9.94155 1.82918C9.6648 0.889801 8.33505 0.889801 8.0583 1.82918L7.95255 2.18805C7.86361 2.48949 7.70837 2.76722 7.4982 3.00089C7.28802 3.23456 7.02824 3.41825 6.73788 3.53852C6.44751 3.65879 6.13392 3.71257 5.82008 3.69595C5.50623 3.67932 5.20008 3.5927 4.92405 3.44243L4.59555 3.26243C3.73605 2.79555 2.79555 3.73493 3.26355 4.59555L3.44243 4.92405C3.5927 5.20008 3.67932 5.50623 3.69595 5.82008C3.71257 6.13392 3.65879 6.44751 3.53852 6.73788C3.41825 7.02824 3.23456 7.28802 3.00089 7.4982C2.76722 7.70837 2.48949 7.86361 2.18805 7.95255L1.82918 8.0583C0.889801 8.33505 0.889801 9.6648 1.82918 9.94155L2.18805 10.0473C2.48965 10.1362 2.76752 10.2915 3.00131 10.5017C3.2351 10.712 3.41887 10.9719 3.53915 11.2624C3.65943 11.5529 3.71318 11.8666 3.69644 12.1806C3.6797 12.4946 3.59291 12.8009 3.44243 13.0769L3.26243 13.4043C2.79555 14.2638 3.73493 15.2043 4.59555 14.7363L4.92405 14.5574C5.20016 14.4072 5.50638 14.3206 5.82029 14.304C6.13419 14.2875 6.44783 14.3414 6.73821 14.4617C7.02859 14.5821 7.28835 14.7659 7.49847 14.9997C7.70859 15.2335 7.86374 15.5114 7.95255 15.8129L8.0583 16.1707C8.33505 17.1101 9.6648 17.1101 9.94155 16.1707L10.0473 15.8118C10.1362 15.5102 10.2915 15.2323 10.5017 14.9985C10.712 14.7648 10.9719 14.581 11.2624 14.4607C11.5529 14.3404 11.8666 14.2867 12.1806 14.3034C12.4946 14.3202 12.8009 14.4069 13.0769 14.5574L13.4043 14.7374C14.2638 15.2043 15.2043 14.2649 14.7363 13.4043L14.5574 13.0769C14.407 12.8008 14.3202 12.4944 14.3035 12.1804C14.2869 11.8664 14.3407 11.5526 14.4611 11.2621C14.5815 10.9715 14.7654 10.7116 14.9993 10.5014C15.2332 10.2912 15.5112 10.1361 15.8129 10.0473L16.1707 9.94155C17.1101 9.6648 17.1101 8.33505 16.1707 8.0583L15.8118 7.95255C15.5104 7.86361 15.2326 7.70837 14.999 7.4982C14.7653 7.28802 14.5816 7.02824 14.4613 6.73788C14.3411 6.44751 14.2873 6.13392 14.3039 5.82008C14.3205 5.50623 14.4072 5.20008 14.5574 4.92405L14.7374 4.59555C15.2043 3.73605 14.2649 2.79555 13.4043 3.26355L13.0769 3.44243C12.8008 3.59312 12.4945 3.68008 12.1803 3.69693C11.8662 3.71378 11.5523 3.66008 11.2617 3.53979C10.971 3.41949 10.711 3.23564 10.5007 3.00174C10.2903 2.76783 10.135 2.4898 10.0462 2.18805L9.94043 1.82918H9.94155ZM6.97943 1.5108C7.5723 -0.502949 10.4276 -0.502949 11.0204 1.5108L11.1262 1.86968C11.1676 2.01025 11.2399 2.13977 11.3379 2.24875C11.4358 2.35774 11.557 2.44342 11.6923 2.49951C11.8277 2.5556 11.9739 2.58069 12.1203 2.57293C12.2666 2.56518 12.4094 2.52477 12.5381 2.45468L12.8666 2.27468C14.7116 1.27118 16.7298 3.2883 15.7241 5.1333L15.5452 5.4618C15.4751 5.59049 15.4347 5.73324 15.4269 5.87957C15.4192 6.02591 15.4442 6.17213 15.5003 6.30751C15.5564 6.44289 15.6421 6.564 15.7511 6.66197C15.8601 6.75994 15.9896 6.83227 16.1302 6.87368L16.489 6.97943C18.5028 7.5723 18.5028 10.4276 16.489 11.0204L16.1302 11.1262C15.9896 11.1676 15.8601 11.2399 15.7511 11.3379C15.6421 11.4358 15.5564 11.557 15.5003 11.6923C15.4442 11.8277 15.4192 11.9739 15.4269 12.1203C15.4347 12.2666 15.4751 12.4094 15.5452 12.5381L15.7252 12.8666C16.7298 14.7116 14.7104 16.7298 12.8666 15.7241L12.5381 15.5452C12.4094 15.4751 12.2666 15.4347 12.1203 15.4269C11.9739 15.4192 11.8277 15.4442 11.6923 15.5003C11.557 15.5564 11.4358 15.6421 11.3379 15.7511C11.2399 15.8601 11.1676 15.9896 11.1262 16.1302L11.0204 16.489C10.4276 18.5028 7.5723 18.5028 6.97943 16.489L6.87368 16.1302C6.83227 15.9896 6.75994 15.8601 6.66197 15.7511C6.564 15.6421 6.44289 15.5564 6.30751 15.5003C6.17213 15.4442 6.02591 15.4192 5.87957 15.4269C5.73324 15.4347 5.59049 15.4751 5.4618 15.5452L5.1333 15.7252C3.2883 16.7298 1.27118 14.7104 2.2758 12.8666L2.45468 12.5381C2.52477 12.4094 2.56518 12.2666 2.57293 12.1203C2.58069 11.9739 2.5556 11.8277 2.49951 11.6923C2.44342 11.557 2.35774 11.4358 2.24875 11.3379C2.13977 11.2399 2.01025 11.1676 1.86968 11.1262L1.5108 11.0204C-0.502949 10.4276 -0.502949 7.5723 1.5108 6.97943L1.86968 6.87368C2.01025 6.83227 2.13977 6.75994 2.24875 6.66197C2.35774 6.564 2.44342 6.44289 2.49951 6.30751C2.5556 6.17213 2.58069 6.02591 2.57293 5.87957C2.56518 5.73324 2.52477 5.59049 2.45468 5.4618L2.27468 5.1333C1.27118 3.2883 3.28943 1.27118 5.1333 2.2758L5.4618 2.45468C5.59049 2.52477 5.73324 2.56518 5.87957 2.57293C6.02591 2.58069 6.17213 2.5556 6.30751 2.49951C6.44289 2.44342 6.564 2.35774 6.66197 2.24875C6.75994 2.13977 6.83227 2.01025 6.87368 1.86968L6.97943 1.5108Z" fill="#4D4D4D"/>
<path fill-rule="evenodd" clip-rule="evenodd" d="M9.00002 6.47327C8.32988 6.47327 7.68719 6.73948 7.21333 7.21333C6.73948 7.68719 6.47327 8.32988 6.47327 9.00002C6.47327 9.67015 6.73948 10.3128 7.21333 10.7867C7.68719 11.2606 8.32988 11.5268 9.00002 11.5268C9.67015 11.5268 10.3128 11.2606 10.7867 10.7867C11.2606 10.3128 11.5268 9.67015 11.5268 9.00002C11.5268 8.32988 11.2606 7.68719 10.7867 7.21333C10.3128 6.73948 9.67015 6.47327 9.00002 6.47327ZM5.34827 9.00002C5.34827 8.52046 5.44272 8.0456 5.62624 7.60255C5.80976 7.1595 6.07874 6.75694 6.41784 6.41784C6.75694 6.07874 7.1595 5.80976 7.60255 5.62624C8.0456 5.44272 8.52046 5.34827 9.00002 5.34827C9.47957 5.34827 9.95443 5.44272 10.3975 5.62624C10.8405 5.80976 11.2431 6.07874 11.5822 6.41784C11.9213 6.75694 12.1903 7.1595 12.3738 7.60255C12.5573 8.0456 12.6518 8.52046 12.6518 9.00002C12.6518 9.96852 12.267 10.8974 11.5822 11.5822C10.8974 12.267 9.96852 12.6518 9.00002 12.6518C8.03151 12.6518 7.10268 12.267 6.41784 11.5822C5.733 10.8974 5.34827 9.96852 5.34827 9.00002Z" fill="#4D4D4D"/>
</g>
<defs>
<filter id="filter0_d" x="-34" y="-247" width="86" height="670" filterUnits="userSpaceOnUse" color-interpolation-filters="sRGB">
<feFlood flood-opacity="0" result="BackgroundImageFix"/>
<feColorMatrix in="SourceAlpha" type="matrix" values="0 0 0 0 0 0 0 0 0 0 0 0 0 0 0 0 0 0 127 0"/>
<feOffset/>
<feGaussianBlur stdDeviation="2.5"/>
<feColorMatrix type="matrix" values="0 0 0 0 0 0 0 0 0 0 0 0 0 0 0 0 0 0 0.15 0"/>
<feBlend mode="overlay" in2="BackgroundImageFix" result="effect1_dropShadow"/>
<feBlend mode="normal" in="SourceGraphic" in2="effect1_dropShadow" result="shape"/>
</filter>
<clipPath id="clip0">
<rect width="1440" height="660" fill="white" transform="translate(-29 -242)"/>
</clipPath>
</defs>
</svg>
