<svg width="18" height="18" viewBox="0 0 18 18" fill="none" xmlns="http://www.w3.org/2000/svg">
<rect width="18" height="18" fill="#E5E5E5"/>
<g clip-path="url(#clip0)">
<rect width="1440" height="841" transform="translate(-29 -242)" fill="white"/>
<g filter="url(#filter0_d)">
<rect x="-29" y="-242" width="76" height="660" fill="white"/>
</g>
<path d="M10.5806 1.18125C10.116 -0.39375 7.884 -0.39375 7.41937 1.18125L7.30687 1.56375C7.23745 1.79954 7.11613 2.01681 6.95182 2.19961C6.7875 2.38242 6.58434 2.52613 6.35726 2.6202C6.13017 2.71427 5.88491 2.75632 5.63945 2.74326C5.394 2.73021 5.15458 2.66238 4.93875 2.54475L4.59 2.3535C3.14663 1.56825 1.56825 3.14663 2.35462 4.58887L2.54475 4.93875C3.0465 5.86125 2.57063 7.00987 1.56375 7.30687L1.18125 7.41937C-0.39375 7.884 -0.39375 10.116 1.18125 10.5806L1.56375 10.6931C1.79954 10.7625 2.01681 10.8839 2.19961 11.0482C2.38242 11.2125 2.52613 11.4157 2.6202 11.6427C2.71427 11.8698 2.75632 12.1151 2.74326 12.3605C2.73021 12.606 2.66238 12.8454 2.54475 13.0612L2.3535 13.41C1.56825 14.8534 3.14663 16.4317 4.58887 15.6454L4.93875 15.4552C5.15458 15.3376 5.394 15.2698 5.63945 15.2567C5.88491 15.2437 6.13017 15.2857 6.35726 15.3798C6.58434 15.4739 6.7875 15.6176 6.95182 15.8004C7.11613 15.9832 7.23745 16.2005 7.30687 16.4362L7.41937 16.8188C7.884 18.3937 10.116 18.3937 10.5806 16.8188L10.6931 16.4362C10.7625 16.2005 10.8839 15.9832 11.0482 15.8004C11.2125 15.6176 11.4157 15.4739 11.6427 15.3798C11.8698 15.2857 12.1151 15.2437 12.3605 15.2567C12.606 15.2698 12.8454 15.3376 13.0612 15.4552L13.41 15.6465C14.8534 16.4317 16.4317 14.8534 15.6454 13.4111L15.4552 13.0612C15.3376 12.8454 15.2698 12.606 15.2567 12.3605C15.2437 12.1151 15.2857 11.8698 15.3798 11.6427C15.4739 11.4157 15.6176 11.2125 15.8004 11.0482C15.9832 10.8839 16.2005 10.7625 16.4362 10.6931L16.8188 10.5806C18.3937 10.116 18.3937 7.884 16.8188 7.41937L16.4362 7.30687C16.2005 7.23745 15.9832 7.11613 15.8004 6.95182C15.6176 6.7875 15.4739 6.58434 15.3798 6.35726C15.2857 6.13017 15.2437 5.88491 15.2567 5.63945C15.2698 5.394 15.3376 5.15458 15.4552 4.93875L15.6465 4.59C16.4317 3.14663 14.8534 1.56825 13.4111 2.35462L13.0612 2.54475C12.8454 2.66238 12.606 2.73021 12.3605 2.74326C12.1151 2.75632 11.8698 2.71427 11.6427 2.6202C11.4157 2.52613 11.2125 2.38242 11.0482 2.19961C10.8839 2.01681 10.7625 1.79954 10.6931 1.56375L10.5806 1.18125ZM9 12.2963C8.12578 12.2963 7.28737 11.949 6.6692 11.3308C6.05103 10.7126 5.70375 9.87422 5.70375 9C5.70375 8.12578 6.05103 7.28737 6.6692 6.6692C7.28737 6.05103 8.12578 5.70375 9 5.70375C9.87392 5.70375 10.712 6.05091 11.33 6.66887C11.948 7.28683 12.2951 8.12495 12.2951 8.99887C12.2951 9.8728 11.948 10.7109 11.33 11.3289C10.712 11.9468 9.87392 12.294 9 12.294V12.2963Z" fill="#0254D7"/>
</g>
<defs>
<filter id="filter0_d" x="-34" y="-247" width="86" height="670" filterUnits="userSpaceOnUse" color-interpolation-filters="sRGB">
<feFlood flood-opacity="0" result="BackgroundImageFix"/>
<feColorMatrix in="SourceAlpha" type="matrix" values="0 0 0 0 0 0 0 0 0 0 0 0 0 0 0 0 0 0 127 0"/>
<feOffset/>
<feGaussianBlur stdDeviation="2.5"/>
<feColorMatrix type="matrix" values="0 0 0 0 0 0 0 0 0 0 0 0 0 0 0 0 0 0 0.15 0"/>
<feBlend mode="overlay" in2="BackgroundImageFix" result="effect1_dropShadow"/>
<feBlend mode="normal" in="SourceGraphic" in2="effect1_dropShadow" result="shape"/>
</filter>
<clipPath id="clip0">
<rect width="1440" height="841" fill="white" transform="translate(-29 -242)"/>
</clipPath>
</defs>
</svg>
