<svg width="16" height="16" viewBox="0 0 16 16" fill="none" xmlns="http://www.w3.org/2000/svg">
<path d="M11.6341 0.955078C12.9162 0.955078 13.9556 1.99442 13.9556 3.27651V7.08338C13.6614 6.933 13.3507 6.81031 13.027 6.71875V4.66936H1.88414V11.6336C1.88414 12.4029 2.50774 13.0265 3.27699 13.0265H6.71924C6.8108 13.3502 6.93349 13.6609 7.08387 13.9551H3.27699C1.9949 13.9551 0.955566 12.9157 0.955566 11.6336V3.27651C0.955566 1.99442 1.9949 0.955078 3.27699 0.955078H11.6341ZM11.6341 1.88365H3.27699C2.50774 1.88365 1.88414 2.50725 1.88414 3.27651V3.74079H13.027V3.27651C13.027 2.50725 12.4034 1.88365 11.6341 1.88365Z" fill="#0254D7"/>
<path d="M15.9556 11.6337C15.9556 9.24699 14.0208 7.31222 11.6341 7.31222C9.24748 7.31222 7.31271 9.24699 7.31271 11.6337C7.31271 14.0203 9.24748 15.9551 11.6341 15.9551C14.0208 15.9551 15.9556 14.0203 15.9556 11.6337ZM9.77699 8.61614C10.0334 8.61614 10.2413 8.82401 10.2413 9.08043V9.24073L10.2423 9.24003C10.6159 8.98459 11.0563 8.8516 11.5752 8.8516C12.4973 8.8516 13.3353 9.26091 13.8548 9.9815C14.0047 10.1895 13.9577 10.4797 13.7497 10.6296C13.5417 10.7796 13.2515 10.7325 13.1015 10.5245C12.768 10.0619 12.219 9.78017 11.5752 9.78017C11.2251 9.78017 10.9712 9.86653 10.7664 10.0066C10.6743 10.0695 10.5866 10.1471 10.5018 10.2408H11.3988C11.6552 10.2408 11.863 10.4487 11.863 10.7051C11.863 10.9615 11.6552 11.1694 11.3988 11.1694H9.77699C9.65386 11.1694 9.53576 11.1204 9.44869 11.0334C9.36162 10.9463 9.31271 10.8282 9.31271 10.7051V9.08043C9.31271 8.82401 9.52057 8.61614 9.77699 8.61614ZM13.0299 13.8977C12.6382 14.2064 12.1556 14.4148 11.5752 14.4148C10.731 14.4148 9.95201 14.0786 9.42533 13.4524C9.26029 13.2561 9.28558 12.9632 9.48183 12.7982C9.67807 12.6331 9.97095 12.6584 10.136 12.8547C10.4706 13.2525 10.9798 13.4863 11.5752 13.4863C11.9732 13.4863 12.3216 13.3152 12.6174 13.0265H11.8649C11.6084 13.0265 11.4006 12.8186 11.4006 12.5622C11.4006 12.3058 11.6084 12.0979 11.8649 12.0979H13.4941C13.7506 12.0979 13.9584 12.3058 13.9584 12.5622L13.9584 14.1895C13.9584 14.4459 13.7506 14.6538 13.4942 14.6538C13.2377 14.6538 13.0299 14.446 13.0299 14.1895L13.0299 13.8977Z" fill="#0254D7"/>
</svg>
