<svg width="20" height="19" viewBox="0 0 20 19" fill="none" xmlns="http://www.w3.org/2000/svg">
<path d="M12.0001 10.6667C13.1047 10.6667 14.0001 11.5621 14.0001 12.6667V13.3333C14.0001 15.9619 11.5207 18.6667 7.33341 18.6667C3.14609 18.6667 0.666748 15.9619 0.666748 13.3333V12.6667C0.666748 11.5621 1.56218 10.6667 2.66675 10.6667H12.0001ZM12.0001 12H2.66675C2.29856 12 2.00008 12.2985 2.00008 12.6667V13.3333C2.00008 15.2502 3.90962 17.3333 7.33341 17.3333C10.7572 17.3333 12.6667 15.2502 12.6667 13.3333V12.6667C12.6667 12.2985 12.3683 12 12.0001 12ZM16.6667 8C17.219 8 17.6667 8.44771 17.6667 9C17.6667 9.55228 17.219 10 16.6667 10C16.1145 10 15.6667 9.55228 15.6667 9C15.6667 8.44771 16.1145 8 16.6667 8ZM7.33341 2C9.35846 2 11.0001 3.64162 11.0001 5.66667C11.0001 7.69171 9.35846 9.33333 7.33341 9.33333C5.30837 9.33333 3.66675 7.69171 3.66675 5.66667C3.66675 3.64162 5.30837 2 7.33341 2ZM7.33341 3.33333C6.04475 3.33333 5.00008 4.378 5.00008 5.66667C5.00008 6.95533 6.04475 8 7.33341 8C8.62208 8 9.66675 6.95533 9.66675 5.66667C9.66675 4.378 8.62208 3.33333 7.33341 3.33333ZM16.6667 0C18.1395 0 19.3334 1.19391 19.3334 2.66667C19.3334 3.64071 19.051 4.18625 18.3281 4.94388L17.976 5.30327C17.4728 5.82803 17.3334 6.1108 17.3334 6.66667C17.3334 7.03486 17.0349 7.33333 16.6667 7.33333C16.2986 7.33333 16.0001 7.03486 16.0001 6.66667C16.0001 5.69262 16.2825 5.14708 17.0053 4.38946L17.3575 4.03006C17.8607 3.50531 18.0001 3.22253 18.0001 2.66667C18.0001 1.93029 17.4031 1.33333 16.6667 1.33333C15.9304 1.33333 15.3334 1.93029 15.3334 2.66667C15.3334 3.03486 15.0349 3.33333 14.6667 3.33333C14.2986 3.33333 14.0001 3.03486 14.0001 2.66667C14.0001 1.19391 15.194 0 16.6667 0Z" fill="#0254D7"/>
</svg>
