<svg width="32" height="32" viewBox="0 0 32 32" fill="none" xmlns="http://www.w3.org/2000/svg">
<circle cx="16" cy="16" r="16" fill="#0254D7" fill-opacity="0.05"/>
<path d="M20.24 9.01398H18.96C18.8275 9.01398 18.72 8.90646 18.72 8.77398V6.85398C18.72 6.7215 18.8275 6.61398 18.96 6.61398C19.0925 6.61398 19.2 6.7215 19.2 6.85398V8.53398H20.24C20.3725 8.53398 20.48 8.6415 20.48 8.77398C20.48 8.90646 20.3725 9.01398 20.24 9.01398ZM19.2 5.33398C17.433 5.33398 16 6.76694 16 8.53398C16 10.301 17.433 11.734 19.2 11.734C20.967 11.734 22.4 10.301 22.4 8.53398C22.4 6.76694 20.967 5.33398 19.2 5.33398Z" fill="#0254D7"/>
<path d="M20.4667 17.3333C21.6817 17.3333 22.6667 18.2288 22.6667 19.3333V19.8098C22.6667 22.1949 19.5789 24 15.3333 24C11.0877 24 8 22.2889 8 19.8098V19.3333C8 18.2288 8.98497 17.3333 10.2 17.3333H20.4667ZM20.4667 18.3333H10.2C9.62822 18.3333 9.15834 18.7299 9.10504 19.237L9.1 19.3333V19.8098C9.1 21.5927 11.5851 23 15.3333 23C18.9457 23 21.4602 21.5967 21.5634 19.9173L21.5667 19.8098V19.3333C21.5667 18.8135 21.1304 18.3864 20.5726 18.3379L20.4667 18.3333ZM15.3333 8C17.7634 8 19.7333 9.79086 19.7333 12C19.7333 14.2091 17.7634 16 15.3333 16C12.9033 16 10.9333 14.2091 10.9333 12C10.9333 9.79086 12.9033 8 15.3333 8ZM15.3333 9C13.5108 9 12.0333 10.3431 12.0333 12C12.0333 13.6569 13.5108 15 15.3333 15C17.1559 15 18.6333 13.6569 18.6333 12C18.6333 10.3431 17.1559 9 15.3333 9Z" fill="#0254D7"/>
</svg>
