<svg width="16" height="18" viewBox="0 0 16 18" fill="none" xmlns="http://www.w3.org/2000/svg">
<path d="M8 0C9.60341 0 10.913 1.19168 10.9958 2.69116L11 2.84211H15.4C15.7314 2.84211 16 3.0966 16 3.41053C16 3.6983 15.7743 3.93612 15.4814 3.97376L15.4 3.97895H14.5528L13.5769 15.3876C13.4506 16.8633 12.1496 18 10.5867 18H5.41328C3.85044 18 2.5494 16.8633 2.42309 15.3876L1.4464 3.97895H0.6C0.296243 3.97895 0.0452071 3.7651 0.00547714 3.48766L0 3.41053C0 3.12276 0.225723 2.88493 0.518584 2.84729L0.6 2.84211H5C5 1.27245 6.34315 0 8 0ZM13.3494 3.97895H2.65062L3.61917 15.2957C3.69495 16.1812 4.47557 16.8632 5.41328 16.8632H10.5867C11.5244 16.8632 12.305 16.1812 12.3808 15.2957L13.3494 3.97895ZM6.2 6.82105C6.50376 6.82105 6.75479 7.0349 6.79452 7.31234L6.8 7.38947V13.4526C6.8 13.7666 6.53137 14.0211 6.2 14.0211C5.89624 14.0211 5.64521 13.8072 5.60548 13.5298L5.6 13.4526V7.38947C5.6 7.07554 5.86863 6.82105 6.2 6.82105ZM9.8 6.82105C10.1038 6.82105 10.3548 7.0349 10.3945 7.31234L10.4 7.38947V13.4526C10.4 13.7666 10.1314 14.0211 9.8 14.0211C9.49624 14.0211 9.24521 13.8072 9.20548 13.5298L9.2 13.4526V7.38947C9.2 7.07554 9.46863 6.82105 9.8 6.82105ZM8 1.13684C7.04731 1.13684 6.26748 1.83802 6.20415 2.72535L6.2 2.84211H9.8L9.79585 2.72535C9.73252 1.83802 8.95269 1.13684 8 1.13684Z" fill="#EE2525"/>
</svg>
