<svg width="18" height="18" viewBox="0 0 18 18" fill="none" xmlns="http://www.w3.org/2000/svg">
<path d="M17.0604 0.939564C18.3132 2.19232 18.3132 4.22343 17.0604 5.47618L6.33146 16.2052C6.08325 16.4534 5.77457 16.6325 5.43593 16.7249L0.849981 17.9756C0.348084 18.1124 -0.112448 17.6519 0.0244331 17.15L1.27515 12.5641C1.3675 12.2254 1.54664 11.9167 1.79484 11.6685L12.5238 0.939564C13.7766 -0.313188 15.8077 -0.313188 17.0604 0.939564ZM11.6547 3.7104L2.74567 12.6194C2.66293 12.7021 2.60322 12.805 2.57244 12.9179L1.6313 16.3687L5.08212 15.4276C5.195 15.3968 5.2979 15.3371 5.38063 15.2543L14.2894 6.34506L11.6547 3.7104ZM13.4746 1.89039L12.6049 2.75927L15.2396 5.39482L16.1096 4.52535C16.8372 3.79773 16.8372 2.61802 16.1096 1.89039C15.382 1.16277 14.2023 1.16277 13.4746 1.89039Z" fill="#0254D7"/>
</svg>
