<svg width="27" height="14" viewBox="0 0 27 14" fill="none" xmlns="http://www.w3.org/2000/svg">
<path d="M0.237305 13L4.51758 0.396484H8.15625L12.4893 13H9.46582L8.70996 10.7676H3.88477L3.14648 13H0.237305ZM4.6582 8.22754H7.93652L6.38965 3.53418H6.23145L4.6582 8.22754ZM16.077 8.29785C16.077 6.80371 16.4754 5.59082 17.2723 4.65918C18.075 3.72754 19.115 3.26172 20.3924 3.26172C21.0545 3.26172 21.6111 3.39941 22.0623 3.6748C22.5193 3.94434 22.8562 4.24609 23.073 4.58008H23.2225V3.49902H26.0086V13H23.24V11.9189H23.0906C23.0086 12.0537 22.9031 12.1855 22.7742 12.3145C22.6453 12.4434 22.4754 12.584 22.2645 12.7363C22.0594 12.8828 21.7986 13.0029 21.4822 13.0967C21.1717 13.1904 20.8318 13.2373 20.4627 13.2373C19.1502 13.2373 18.0896 12.7861 17.2811 11.8838C16.4783 10.9814 16.077 9.78613 16.077 8.29785ZM18.8982 8.24512C18.8982 8.9834 19.1004 9.58105 19.5047 10.0381C19.909 10.4893 20.4393 10.7148 21.0955 10.7148C21.7518 10.7148 22.2791 10.4834 22.6775 10.0205C23.076 9.55176 23.2752 8.95996 23.2752 8.24512C23.2752 7.50098 23.0701 6.90625 22.66 6.46094C22.2498 6.00977 21.7225 5.78418 21.0779 5.78418C20.4334 5.78418 19.909 6.0127 19.5047 6.46973C19.1004 6.92676 18.8982 7.51855 18.8982 8.24512Z" fill="#2F405B"/>
</svg>
