<svg width="18" height="12" viewBox="0 0 18 12" fill="none" xmlns="http://www.w3.org/2000/svg">
<rect width="18" height="12" fill="#E5E5E5"/>
<g clip-path="url(#clip0)">
<rect width="1440" height="660" transform="translate(-29 -193)" fill="white"/>
<g filter="url(#filter0_d)">
<rect x="-29" y="-193" width="76" height="660" fill="white"/>
</g>
<path fill-rule="evenodd" clip-rule="evenodd" d="M0 2.4C0 1.76348 0.237053 1.15303 0.65901 0.702944C1.08097 0.252856 1.65326 1.66215e-08 2.25 1.66215e-08H10.6875C11.2332 -6.84576e-05 11.7604 0.211431 12.1708 0.595113C12.5812 0.978795 12.8469 1.50851 12.9184 2.0856L16.4171 0.4272C16.5884 0.345806 16.776 0.311356 16.9629 0.326983C17.1498 0.342609 17.3301 0.407815 17.4874 0.516675C17.6447 0.625535 17.7739 0.774596 17.8635 0.950309C17.953 1.12602 17.9999 1.32281 18 1.5228V10.4772C17.9998 10.677 17.9529 10.8737 17.8634 11.0492C17.774 11.2248 17.6448 11.3738 17.4877 11.4826C17.3306 11.5914 17.1505 11.6567 16.9637 11.6724C16.7769 11.6882 16.5895 11.6539 16.4182 11.5728L12.9184 9.9144C12.8469 10.4915 12.5812 11.0212 12.1708 11.4049C11.7604 11.7886 11.2332 12.0001 10.6875 12H2.25C1.65326 12 1.08097 11.7471 0.65901 11.2971C0.237053 10.847 0 10.2365 0 9.6V2.4ZM12.9375 8.61L16.875 10.4772V1.5228L12.9375 3.39V8.61ZM2.25 1.2C1.95163 1.2 1.66548 1.32643 1.4545 1.55147C1.24353 1.77652 1.125 2.08174 1.125 2.4V9.6C1.125 9.91826 1.24353 10.2235 1.4545 10.4485C1.66548 10.6736 1.95163 10.8 2.25 10.8H10.6875C10.9859 10.8 11.272 10.6736 11.483 10.4485C11.694 10.2235 11.8125 9.91826 11.8125 9.6V2.4C11.8125 2.08174 11.694 1.77652 11.483 1.55147C11.272 1.32643 10.9859 1.2 10.6875 1.2H2.25Z" fill="#4D4D4D"/>
</g>
<defs>
<filter id="filter0_d" x="-34" y="-198" width="86" height="670" filterUnits="userSpaceOnUse" color-interpolation-filters="sRGB">
<feFlood flood-opacity="0" result="BackgroundImageFix"/>
<feColorMatrix in="SourceAlpha" type="matrix" values="0 0 0 0 0 0 0 0 0 0 0 0 0 0 0 0 0 0 127 0"/>
<feOffset/>
<feGaussianBlur stdDeviation="2.5"/>
<feColorMatrix type="matrix" values="0 0 0 0 0 0 0 0 0 0 0 0 0 0 0 0 0 0 0.15 0"/>
<feBlend mode="overlay" in2="BackgroundImageFix" result="effect1_dropShadow"/>
<feBlend mode="normal" in="SourceGraphic" in2="effect1_dropShadow" result="shape"/>
</filter>
<clipPath id="clip0">
<rect width="1440" height="660" fill="white" transform="translate(-29 -193)"/>
</clipPath>
</defs>
</svg>
