<svg width="85" height="57" viewBox="0 0 85 57" fill="none" xmlns="http://www.w3.org/2000/svg">
<path opacity="0.5" fill-rule="evenodd" clip-rule="evenodd" d="M0 11.4C0 8.37653 1.11942 5.4769 3.11199 3.33898C5.10456 1.20107 7.80707 7.89519e-08 10.625 7.89519e-08H50.4688C53.0458 -0.000325174 55.5351 1.0043 57.4732 2.82679C59.4112 4.64928 60.6658 7.1654 61.0034 9.9066L77.5253 2.0292C78.334 1.64258 79.22 1.47894 80.1026 1.55317C80.9852 1.62739 81.8366 1.93712 82.5793 2.45421C83.322 2.97129 83.9325 3.67933 84.3552 4.51397C84.778 5.3486 84.9996 6.28337 85 7.2333V49.7667C84.9992 50.7159 84.7775 51.6498 84.3551 52.4838C83.9326 53.3178 83.3227 54.0253 82.5807 54.5423C81.8388 55.0592 80.9883 55.3691 80.1064 55.444C79.2245 55.5188 78.3391 55.3562 77.5306 54.9708L61.0034 47.0934C60.6658 49.8346 59.4112 52.3507 57.4732 54.1732C55.5351 55.9957 53.0458 57.0003 50.4688 57H10.625C7.80707 57 5.10456 55.7989 3.11199 53.661C1.11942 51.5231 0 48.6235 0 45.6V11.4Z" fill="#E6E6E6"/>
</svg>
